 <svg  version="1.0" xmlns="http://www.w3.org/2000/svg"  width="1350.000000pt" height="843.000000pt" viewBox="0 0 1350.000000 843.000000"  preserveAspectRatio="xMidYMid meet">  <g transform="translate(0.000000,843.000000) scale(0.100000,-0.100000)" fill="#747e3e" stroke="none"> <path d="M7043 7602 c-54 -62 -53 -152 1 -152 26 0 86 47 86 66 0 7 7 25 17 41 15 27 15 31 -2 56 -25 39 -62 35 -102 -11z"/> <path d="M9665 7620 c-11 -5 -39 -9 -62 -9 -35 -1 -43 -4 -43 -20 0 -31 24 -43 74 -36 30 5 46 4 46 -3 0 -15 29 -42 45 -42 21 0 28 33 10 46 -17 13 -3 30 15 19 13 -8 13 -75 0 -75 -5 0 -16 -13 -24 -29 -16 -29 -7 -51 20 -51 7 0 19 -12 26 -27 9 -20 21 -28 38 -28 l25 0 -3 105 c-5 126 -13 140 -82 140 -25 0 -50 4 -55 9 -6 5 -19 5 -30 1z"/> <path d="M7478 7552 c-28 -3 -40 -22 -14 -22 7 0 19 -7 26 -15 7 -8 22 -15 33 -15 11 0 26 -8 33 -17 7 -10 15 -15 19 -11 7 7 -42 58 -56 58 -4 0 -9 6 -11 13 -2 7 -15 11 -30 9z"/> <path d="M6856 7455 c-26 -27 -16 -65 18 -65 14 0 47 43 44 57 -4 24 -41 28 -62 8z"/> <path d="M7605 7450 c3 -5 13 -10 21 -10 8 0 14 5 14 10 0 6 -9 10 -21 10 -11 0 -17 -4 -14 -10z"/> <path d="M7655 7420 c3 -5 15 -10 26 -10 11 0 22 -7 25 -15 4 -8 14 -15 24 -15 10 0 23 -6 29 -14 14 -17 51 -28 51 -15 0 4 -10 14 -22 20 -13 7 -25 15 -28 19 -5 7 -91 40 -103 40 -5 0 -5 -4 -2 -10z"/> <path d="M9530 7369 c-51 -40 -68 -64 -56 -77 4 -3 15 -1 24 5 9 7 37 22 62 35 25 12 55 30 68 40 23 16 23 17 3 27 -32 18 -46 13 -101 -30z"/> <path d="M6736 7385 c-10 -8 -23 -16 -29 -18 -15 -5 1 -57 18 -57 8 0 15 4 15 8 0 4 14 13 30 19 23 9 30 18 30 37 0 20 -5 26 -22 26 -13 0 -32 -7 -42 -15z"/> <path d="M9686 7344 c-8 -22 4 -40 15 -23 11 18 11 39 0 39 -5 0 -12 -7 -15 -16z"/> <path d="M7825 7330 c3 -5 13 -10 21 -10 8 0 14 -7 14 -15 0 -9 9 -15 23 -15 21 1 20 2 -8 25 -30 25 -62 34 -50 15z"/> <path d="M9840 7322 c0 -14 36 -79 63 -113 23 -29 27 -31 33 -15 4 11 -1 28 -15 46 -11 16 -21 35 -21 42 -1 21 -26 48 -44 48 -9 0 -16 -4 -16 -8z"/> <path d="M6610 7313 c-47 -19 -64 -73 -23 -73 19 0 63 26 75 44 15 23 -19 42 -52 29z"/> <path d="M7965 7250 c-3 -6 1 -13 10 -16 19 -8 30 0 20 15 -8 14 -22 14 -30 1z"/> <path d="M6465 7229 c-43 -24 -59 -64 -27 -71 29 -7 93 34 90 57 -3 23 -34 30 -63 14z"/> <path d="M8025 7210 c3 -5 13 -10 21 -10 8 0 12 5 9 10 -3 6 -13 10 -21 10 -8 0 -12 -4 -9 -10z"/> <path d="M9105 7210 c-7 -12 2 -30 16 -30 5 0 9 9 9 20 0 21 -15 27 -25 10z"/> <path d="M9533 7203 c-12 -2 -25 -15 -30 -30 -7 -21 -4 -31 14 -49 13 -13 23 -34 23 -47 0 -22 25 -56 34 -46 11 14 24 144 15 161 -10 18 -15 19 -56 11z"/> <path d="M8075 7180 c3 -5 15 -10 26 -10 11 0 17 5 14 10 -3 6 -15 10 -26 10 -11 0 -17 -4 -14 -10z"/> <path d="M9771 7172 c-18 -33 -13 -52 21 -83 24 -23 33 -27 39 -17 12 18 11 78 -1 78 -5 0 -18 9 -29 21 l-19 21 -11 -20z"/> <path d="M6308 7137 c-20 -16 -26 -28 -22 -45 8 -27 8 -27 55 -4 35 16 55 45 43 64 -10 15 -49 7 -76 -15z"/> <path d="M8125 7150 c3 -5 15 -10 26 -10 11 0 17 5 14 10 -3 6 -15 10 -26 10 -11 0 -17 -4 -14 -10z"/> <path d="M7000 7140 c0 -5 6 -10 14 -10 7 0 19 -7 26 -15 7 -8 21 -15 32 -15 10 0 21 -7 24 -15 4 -8 15 -15 26 -15 17 0 18 3 8 15 -7 8 -18 15 -25 15 -8 0 -15 3 -17 8 -4 9 -66 42 -79 42 -5 0 -9 -4 -9 -10z"/> <path d="M8230 7090 c0 -5 11 -10 25 -10 14 0 25 -5 25 -10 0 -6 8 -13 18 -17 9 -3 25 -13 34 -21 9 -8 23 -12 30 -9 8 4 5 8 -9 12 -13 4 -23 11 -23 15 0 11 -67 50 -86 50 -8 0 -14 -4 -14 -10z"/> <path d="M6172 7059 c-38 -25 -39 -53 -1 -57 27 -3 79 31 79 53 0 12 -21 25 -38 25 -4 0 -22 -10 -40 -21z"/> <path d="M5600 7030 c0 -5 -11 -12 -25 -16 -14 -3 -25 -10 -25 -14 0 -4 -12 -13 -27 -19 -16 -6 -35 -15 -43 -21 -36 -24 -257 -153 -275 -161 -11 -5 -29 -15 -40 -21 -17 -12 -69 -44 -117 -73 -9 -5 -43 -24 -75 -41 -135 -72 -201 -108 -241 -135 -24 -16 -46 -29 -50 -29 -4 0 -15 -13 -25 -29 -15 -26 -17 -67 -17 -385 0 -350 0 -355 21 -366 26 -15 57 -7 111 28 24 15 52 33 63 40 11 7 32 17 48 23 15 6 27 15 27 20 0 5 7 9 15 9 18 0 75 40 75 52 0 4 -14 8 -31 8 -29 0 -31 2 -25 26 7 26 6 26 -25 20 -17 -3 -41 -6 -53 -6 -14 0 -26 -10 -35 -31 -7 -16 -12 -31 -10 -33 2 -2 13 -8 24 -14 18 -10 18 -11 -10 -17 -17 -3 -37 -10 -46 -15 -9 -5 -33 -12 -53 -15 l-36 -7 0 81 c0 48 4 81 10 81 6 0 31 -10 56 -22 38 -18 47 -19 55 -7 5 8 9 17 9 20 0 8 -66 59 -75 59 -3 0 -22 12 -41 26 -32 25 -34 29 -34 90 0 35 3 64 6 64 3 0 12 -7 21 -15 8 -9 20 -14 27 -12 10 4 12 12 15 65 1 12 9 26 19 29 32 12 92 56 91 67 0 6 -18 26 -40 45 -50 43 -66 33 -67 -45 0 -63 -5 -72 -27 -54 -11 9 -15 29 -13 74 1 33 -2 71 -6 82 -7 19 4 29 92 82 88 53 105 60 139 55 39 -5 63 -33 63 -74 0 -29 16 -30 28 -4 7 14 18 25 27 25 16 0 18 12 9 48 -7 25 -29 29 -38 7 -7 -19 -35 -20 -42 -1 -7 17 38 66 60 66 9 0 16 4 16 9 0 5 10 13 21 16 12 4 34 22 50 40 32 36 97 53 106 28 3 -7 14 -13 25 -13 14 0 18 5 13 19 -8 26 4 51 25 51 10 0 31 15 47 33 15 18 46 41 68 52 22 11 45 25 52 31 23 21 84 27 102 9 40 -39 73 -65 81 -65 29 0 24 138 -5 170 -19 21 -45 27 -45 10z"/> <path d="M7210 7020 c0 -5 9 -10 20 -10 11 0 20 5 20 10 0 6 -9 10 -20 10 -11 0 -20 -4 -20 -10z"/> <path d="M8390 7000 c0 -5 9 -10 21 -10 11 0 17 5 14 10 -3 6 -13 10 -21 10 -8 0 -14 -4 -14 -10z"/> <path d="M9596 6918 c5 -51 8 -167 6 -258 -2 -91 1 -179 7 -197 9 -31 7 -33 -42 -71 -29 -21 -70 -47 -92 -56 -68 -30 -90 -44 -93 -60 -2 -10 3 -16 13 -16 9 0 29 -6 43 -14 15 -8 34 -17 42 -20 8 -4 29 -15 45 -26 17 -11 39 -24 50 -30 11 -6 34 -19 50 -30 17 -11 37 -23 45 -26 8 -4 23 -14 33 -22 15 -13 19 -13 35 0 9 8 25 18 35 21 9 4 17 11 17 16 0 5 9 13 20 16 15 5 19 12 15 25 -5 17 -2 18 29 13 34 -5 52 10 24 20 -8 2 -9 8 -4 13 5 5 11 4 13 -3 7 -20 48 -15 69 8 16 17 16 22 4 29 -8 6 -18 10 -22 10 -5 0 -17 9 -29 21 -32 32 -75 19 -126 -38 -24 -25 -43 -49 -43 -52 0 -3 -4 -12 -9 -20 -7 -11 -30 -3 -115 40 -98 49 -124 69 -94 69 6 0 21 9 33 20 11 10 42 31 69 45 l48 25 31 -30 c34 -33 87 -42 87 -15 0 8 -6 15 -13 15 -8 0 -24 9 -37 20 -13 11 -28 20 -34 20 -6 1 -24 11 -39 23 l-28 23 22 49 c18 40 22 68 21 145 0 52 3 104 8 115 19 45 29 86 24 98 -5 15 21 83 36 92 5 3 10 13 10 22 0 9 7 25 17 35 23 26 14 29 -38 14 -38 -12 -49 -12 -70 0 -13 7 -37 13 -53 14 l-28 0 8 -92z"/> <path d="M6045 6988 c-44 -26 -57 -63 -26 -73 27 -8 91 35 88 60 -2 23 -33 30 -62 13z"/> <path d="M7272 6988 c3 -7 13 -15 22 -16 12 -3 17 1 14 10 -3 7 -13 15 -22 16 -12 3 -17 -1 -14 -10z"/> <path d="M7350 6940 c6 -11 17 -20 24 -20 8 0 19 -7 26 -15 13 -16 50 -21 50 -6 0 5 -8 11 -17 15 -10 3 -31 14 -48 25 -39 25 -48 26 -35 1z"/> <path d="M9819 6913 c-20 -31 -30 -37 -52 -35 -35 4 -35 -14 -2 -63 15 -20 23 -40 20 -43 -3 -4 -10 -1 -14 7 -19 31 -28 -58 -12 -113 12 -39 29 -115 42 -186 5 -30 14 -59 19 -65 4 -5 12 -26 17 -45 13 -49 40 -52 49 -5 9 51 -4 189 -23 233 -13 30 -15 65 -10 195 3 86 2 157 -2 157 -4 0 -19 -17 -32 -37z"/> <path d="M5893 6898 c-34 -21 -39 -33 -24 -57 8 -13 15 -12 50 3 42 19 54 36 45 61 -8 20 -32 18 -71 -7z"/> <path d="M8560 6885 c-9 -11 -10 -19 -3 -26 7 -7 12 -2 15 15 6 30 5 31 -12 11z"/> <path d="M6292 6574 c5 -315 11 -364 38 -314 8 15 12 91 12 243 0 122 4 229 9 239 17 31 63 21 156 -34 128 -76 143 -84 200 -112 28 -14 54 -30 58 -37 4 -6 27 -20 51 -30 24 -11 46 -24 49 -29 3 -6 14 -10 24 -10 10 0 25 -7 32 -17 8 -9 32 -25 54 -35 22 -10 54 -28 70 -38 17 -11 39 -24 50 -30 11 -6 38 -21 60 -35 22 -13 55 -31 73 -40 18 -9 55 -31 81 -50 l48 -35 7 -78 c3 -42 6 -144 6 -227 1 -82 1 -243 2 -358 0 -114 5 -210 9 -213 5 -3 9 46 9 108 0 62 1 269 3 460 l4 347 -26 10 c-14 6 -48 24 -76 40 -27 17 -66 39 -86 49 -19 10 -74 42 -121 70 -47 29 -91 52 -97 52 -6 0 -11 5 -11 10 0 6 -5 10 -11 10 -6 0 -48 23 -94 50 -46 28 -88 50 -94 50 -6 0 -11 4 -11 10 0 5 -11 12 -25 16 -14 3 -25 10 -25 14 0 4 -11 11 -25 14 -14 4 -25 11 -25 16 0 6 -5 10 -11 10 -6 0 -60 29 -119 65 -59 36 -111 65 -114 65 -4 0 -12 5 -19 10 -33 28 -107 80 -113 80 -4 0 -5 -142 -2 -316z"/> <path d="M7485 6870 c-3 -5 10 -18 29 -29 39 -24 46 -26 46 -8 0 15 -68 48 -75 37z"/> <path d="M5530 6840 c-6 -11 -17 -20 -25 -20 -23 0 -18 -17 7 -24 21 -5 22 -7 6 -22 -15 -15 -18 -15 -46 1 -19 11 -39 15 -55 11 -21 -5 -26 -12 -29 -51 -2 -24 -2 -49 0 -55 6 -16 27 -12 55 10 14 11 34 20 44 20 10 0 23 10 28 23 6 12 20 26 33 32 18 8 22 18 22 52 0 47 -21 59 -40 23z"/> <path d="M5768 6829 c-10 -5 -18 -21 -18 -34 0 -21 5 -25 28 -25 36 0 66 45 42 60 -19 12 -31 12 -52 -1z"/> <path d="M7575 6810 c3 -5 12 -10 19 -10 8 0 19 -7 26 -15 14 -16 55 -21 45 -5 -3 6 -14 10 -25 10 -10 0 -20 7 -24 15 -3 8 -15 15 -26 15 -12 0 -18 -4 -15 -10z"/> <path d="M5310 6748 c0 -7 -3 -23 -6 -34 -4 -16 0 -23 16 -27 20 -5 22 -3 16 25 -3 17 -6 34 -6 39 0 5 -4 9 -10 9 -5 0 -10 -6 -10 -12z"/> <path d="M7780 6691 c0 -11 26 -22 34 -14 12 12 5 23 -14 23 -11 0 -20 -4 -20 -9z"/> <path d="M5558 6660 c16 -27 15 -30 -2 -49 -11 -12 -27 -21 -38 -21 -10 0 -18 -4 -18 -10 0 -5 9 -10 20 -10 11 0 23 -7 26 -15 4 -8 10 -15 15 -15 4 0 24 -16 43 -35 20 -19 40 -35 46 -35 7 0 10 32 8 92 -3 102 -7 107 -85 121 l-32 6 17 -29z"/> <path d="M5130 6662 c0 -16 46 -52 67 -52 12 0 23 -6 26 -13 3 -8 22 -22 44 -32 21 -10 42 -24 46 -32 5 -7 12 -11 17 -8 5 3 23 -1 40 -10 17 -9 37 -14 43 -11 7 2 2 8 -10 11 -13 4 -23 11 -23 16 0 5 -6 9 -14 9 -8 0 -22 8 -32 17 -18 19 -45 36 -81 52 -11 5 -24 15 -28 20 -3 6 -14 11 -24 11 -10 0 -24 7 -31 15 -13 16 -40 20 -40 7z"/> <path d="M7890 6635 c0 -6 62 -45 73 -45 4 0 7 5 7 10 0 6 -7 10 -15 10 -9 0 -18 7 -21 15 -6 14 -44 22 -44 10z"/> <path d="M7971 6566 c-14 -16 -1 -84 15 -76 8 4 33 65 34 83 0 13 -37 8 -49 -7z"/> <path d="M5094 6523 c-23 -8 -2 -40 42 -63 24 -14 44 -28 44 -32 0 -5 5 -8 11 -8 16 0 97 -39 104 -50 9 -15 47 -12 43 3 -3 6 -19 19 -38 28 -18 9 -38 23 -44 31 -7 9 -27 23 -46 32 -19 8 -51 26 -70 39 -19 13 -40 22 -46 20z"/> <path d="M4916 6481 c-7 -11 21 -81 33 -81 5 0 14 6 21 14 9 12 7 21 -11 45 -24 32 -34 37 -43 22z"/> <path d="M5445 6480 c3 -5 13 -10 21 -10 8 0 14 5 14 10 0 6 -9 10 -21 10 -11 0 -17 -4 -14 -10z"/> <path d="M4856 6461 c-8 -12 3 -41 15 -41 12 0 12 37 0 45 -5 3 -12 1 -15 -4z"/> <path d="M5568 6424 c-4 -3 1 -22 9 -42 12 -29 13 -43 4 -74 -13 -42 -26 -49 -34 -18 -9 33 -50 25 -81 -15 -23 -29 -25 -36 -12 -41 9 -3 29 -1 46 4 28 10 30 9 30 -14 0 -17 5 -24 19 -24 31 0 104 61 113 95 11 41 -1 106 -21 112 -9 2 -24 9 -33 14 -20 10 -32 11 -40 3z"/> <path d="M5355 6350 c-9 -15 4 -50 20 -50 26 0 45 12 45 30 0 26 -51 42 -65 20z"/> <path d="M8220 6343 c0 -13 5 -23 10 -23 13 0 13 11 0 30 -8 12 -10 11 -10 -7z"/> <path d="M4890 6317 c-6 -212 -5 -234 15 -249 11 -8 34 -17 51 -21 26 -5 34 -1 53 23 22 31 27 55 12 64 -5 3 -14 -1 -21 -9 -14 -17 -60 -20 -60 -5 0 6 7 24 15 40 12 24 22 30 48 30 18 0 41 6 50 13 16 11 14 14 -20 32 -21 11 -54 31 -73 46 -30 23 -70 43 -70 36z"/> <path d="M8130 6290 c6 -11 13 -20 15 -20 3 0 5 9 5 20 0 11 -7 20 -15 20 -13 0 -14 -4 -5 -20z"/> <path d="M5237 6254 c-14 -14 -7 -25 13 -22 12 2 21 8 21 13 0 12 -24 18 -34 9z"/> <path d="M6095 6232 c-16 -2 -39 -14 -52 -26 -20 -21 -21 -27 -14 -111 9 -94 23 -119 66 -113 17 3 20 10 18 56 -2 51 -1 53 38 77 22 14 54 28 72 32 18 3 37 10 44 15 6 5 20 8 29 6 11 -2 20 4 22 15 2 12 -7 21 -30 31 -35 14 -142 24 -193 18z m35 -61 c-1 -19 -38 -51 -53 -45 -16 6 -15 8 3 35 13 17 26 26 35 22 8 -3 15 -8 15 -12z"/> <path d="M5180 6215 c0 -8 9 -15 20 -15 11 0 20 7 20 15 0 8 -9 15 -20 15 -11 0 -20 -7 -20 -15z"/> <path d="M5091 6185 c-30 -17 -43 -38 -35 -59 8 -20 30 -21 37 -2 3 8 16 16 29 18 17 2 23 9 23 28 0 29 -19 34 -54 15z"/> <path d="M10137 6170 c-14 -11 -30 -20 -36 -20 -19 0 -89 -38 -93 -51 -4 -12 -99 -66 -268 -151 -72 -36 -122 -70 -161 -108 -50 -49 -57 -60 -63 -109 -4 -30 -11 -62 -17 -72 -7 -13 -4 -27 11 -51 27 -45 26 -68 -4 -68 -14 0 -28 5 -31 10 -8 13 -55 13 -55 1 0 -5 9 -12 19 -16 25 -8 65 -106 56 -136 -4 -12 -7 -94 -6 -183 1 -89 1 -185 1 -215 -3 -117 37 -197 103 -208 24 -4 37 -2 37 6 0 6 -4 11 -8 11 -4 0 -19 9 -34 21 l-26 21 5 324 c5 294 4 327 -12 344 -11 12 -13 20 -6 25 7 4 11 49 11 116 0 103 2 112 23 130 12 10 26 18 31 19 5 0 30 13 56 29 26 16 78 46 116 67 38 20 71 40 74 43 5 6 38 24 115 64 22 12 54 31 71 44 17 13 35 23 41 23 6 0 31 16 56 35 44 34 90 45 101 26 3 -5 42 -31 87 -58 44 -26 102 -61 127 -76 26 -15 59 -33 75 -38 15 -6 27 -15 27 -20 0 -5 6 -9 13 -9 7 0 36 -16 66 -35 29 -19 54 -35 57 -35 2 0 37 -20 77 -45 41 -25 77 -45 80 -45 3 0 51 -27 105 -60 55 -33 103 -60 106 -60 3 0 25 -13 48 -30 22 -16 45 -30 50 -30 10 0 159 -96 218 -140 43 -32 100 -53 100 -37 0 13 -74 83 -136 129 -25 18 -66 50 -90 71 -25 20 -55 37 -68 37 -13 0 -31 9 -41 20 -10 11 -44 33 -74 49 -139 69 -157 80 -175 100 -11 11 -26 21 -35 21 -9 0 -31 10 -50 23 -67 44 -107 67 -160 93 -29 15 -62 35 -72 45 -11 11 -27 19 -38 19 -10 0 -29 8 -42 18 -31 22 -45 31 -151 92 -101 58 -164 67 -211 30z"/> <path d="M5428 6173 c-16 -2 -28 -8 -28 -12 0 -5 -17 -20 -39 -34 -31 -21 -46 -24 -80 -20 -23 3 -44 10 -47 14 -3 5 -18 9 -35 9 -25 0 -29 -4 -29 -28 0 -18 -11 -38 -31 -58 -28 -27 -31 -28 -43 -11 -24 32 -86 13 -86 -27 0 -19 4 -22 29 -18 21 3 33 -2 44 -18 14 -20 19 -21 48 -11 18 6 47 22 65 36 18 14 39 25 47 25 8 0 20 7 27 15 7 8 21 15 32 15 11 0 22 9 25 20 3 11 11 20 18 20 7 0 18 7 25 15 7 8 21 15 31 15 11 0 19 4 19 10 0 5 11 12 25 16 21 5 38 37 18 33 -5 -1 -20 -4 -35 -6z"/> <path d="M4438 6104 c-26 -26 -38 -47 -43 -80 -7 -52 5 -74 40 -74 30 0 85 46 85 70 0 10 5 22 10 25 13 8 13 51 0 76 -16 29 -53 23 -92 -17z"/> <path d="M6300 6114 c-6 -14 -10 -45 -10 -70 0 -42 -1 -44 -30 -44 -18 0 -33 -6 -36 -15 -4 -8 -14 -15 -24 -15 -26 0 -32 -14 -19 -44 15 -32 46 -34 51 -5 2 12 10 25 18 29 8 4 29 15 47 24 17 9 47 16 65 16 19 0 37 3 40 6 4 3 -6 24 -22 47 -15 23 -30 52 -34 64 -10 33 -35 37 -46 7z"/> <path d="M2965 6079 c-27 -16 -57 -34 -65 -39 -8 -6 -24 -15 -35 -20 -11 -6 -33 -19 -50 -30 -16 -11 -43 -26 -60 -34 -16 -8 -52 -29 -80 -45 -27 -17 -59 -35 -70 -41 -11 -6 -33 -19 -50 -29 -16 -11 -50 -31 -75 -44 -25 -14 -61 -34 -80 -46 -19 -11 -44 -25 -55 -31 -11 -6 -33 -19 -50 -30 -16 -11 -43 -26 -60 -34 -16 -8 -52 -29 -80 -45 -27 -17 -59 -35 -70 -41 -11 -6 -33 -19 -50 -30 -16 -11 -43 -26 -60 -34 -16 -8 -52 -29 -80 -45 -27 -17 -59 -35 -70 -41 -11 -6 -36 -20 -55 -31 -19 -12 -55 -32 -80 -46 -25 -13 -58 -33 -75 -44 -16 -10 -39 -23 -50 -29 -11 -5 -27 -14 -35 -20 -22 -14 -163 -95 -180 -103 -8 -4 -28 -16 -45 -27 -16 -11 -43 -26 -60 -34 -16 -8 -52 -29 -80 -45 -27 -17 -59 -35 -70 -41 -11 -6 -33 -19 -50 -30 -16 -11 -43 -26 -60 -34 -16 -8 -52 -29 -80 -45 -27 -17 -59 -35 -70 -41 -11 -6 -33 -19 -50 -29 -16 -11 -50 -31 -75 -44 -25 -14 -61 -34 -80 -46 -19 -11 -44 -25 -55 -31 -11 -6 -33 -19 -50 -30 -16 -11 -39 -24 -50 -29 -22 -10 -53 -48 -78 -98 -15 -29 -17 -111 -17 -887 0 -482 4 -857 9 -860 10 -6 82 39 93 59 4 7 19 15 32 19 13 3 26 16 30 28 11 43 7 1443 -5 1477 -34 97 -38 14 -39 -783 0 -374 -4 -684 -8 -690 -4 -6 -9 349 -12 789 l-5 800 21 35 c14 23 42 46 78 65 85 45 97 52 109 64 6 6 19 11 29 11 10 0 18 4 18 10 0 5 11 12 25 16 14 3 25 10 25 14 0 4 12 13 28 19 15 6 34 15 42 21 53 35 169 100 179 100 6 0 11 5 11 10 0 6 5 10 11 10 6 0 48 23 94 50 46 28 88 50 94 50 6 0 11 4 11 9 0 5 12 14 28 20 15 6 50 25 77 41 28 17 61 36 75 43 14 6 27 15 30 18 3 4 32 21 65 39 33 18 108 61 166 96 59 35 112 64 118 64 6 0 11 4 11 8 0 4 15 15 33 23 50 23 120 63 135 77 7 6 20 12 28 12 8 0 14 4 14 9 0 5 10 13 21 16 12 4 88 47 169 96 81 49 153 89 159 89 6 0 11 4 11 9 0 5 10 13 22 17 11 3 54 26 93 50 40 24 78 44 84 44 6 0 11 4 11 9 0 5 12 14 28 20 15 6 36 16 47 23 17 12 36 23 120 75 11 7 29 17 40 23 11 6 34 19 50 30 51 34 73 43 89 37 14 -6 16 -73 16 -592 0 -582 -5 -759 -21 -749 -5 3 -9 234 -9 513 0 279 -3 537 -7 572 -7 62 -7 63 -16 29 -7 -27 -27 -1215 -21 -1228 3 -7 54 19 54 28 0 5 7 10 16 10 8 0 33 10 54 23 l40 22 0 740 c0 730 0 741 -20 758 -27 23 -37 22 -95 -14z"/> <path d="M5939 5956 c-34 -31 -45 -95 -24 -136 8 -16 17 -60 19 -97 7 -108 19 -125 55 -74 16 22 21 44 21 90 0 57 -2 62 -25 71 -36 14 -41 36 -22 91 29 80 21 97 -24 55z"/> <path d="M6367 5964 c-3 -4 0 -16 8 -27 12 -17 12 -24 -1 -48 -19 -38 -18 -40 11 -33 21 5 25 3 25 -14 0 -12 -5 -24 -11 -27 -5 -4 -14 -17 -20 -28 -12 -29 -30 -56 -53 -81 -45 -51 -47 -58 -34 -139 11 -71 13 -77 35 -77 22 0 23 3 18 34 -4 20 -2 36 4 40 6 4 11 20 11 36 0 16 16 51 36 81 63 95 83 166 62 227 -6 20 -16 43 -21 50 -10 12 -59 17 -70 6z"/> <path d="M4236 5935 c-15 -23 -15 -25 4 -35 23 -13 54 0 69 29 13 23 5 31 -30 31 -17 0 -32 -8 -43 -25z"/> <path d="M4123 5878 c-34 -20 -39 -33 -24 -57 7 -11 16 -11 50 5 33 15 41 24 41 47 0 33 -20 35 -67 5z"/> <path d="M2800 5830 c-12 -8 -11 -10 8 -10 12 0 22 5 22 10 0 13 -11 13 -30 0z"/> <path d="M2754 5805 c-19 -14 -18 -14 4 -15 13 0 22 6 22 15 0 19 -1 19 -26 0z"/> <path d="M3983 5799 c-43 -28 -44 -59 -3 -59 41 0 87 44 70 65 -16 20 -29 19 -67 -6z"/> <path d="M9035 5775 c-16 -13 -33 -24 -37 -25 -6 0 -120 -65 -178 -101 -8 -5 -24 -14 -35 -19 -11 -6 -33 -19 -50 -30 -16 -10 -52 -31 -80 -45 -27 -14 -63 -34 -80 -45 -16 -11 -39 -24 -50 -30 -11 -6 -33 -19 -50 -30 -16 -11 -43 -26 -60 -34 -16 -8 -52 -29 -80 -45 -27 -17 -59 -35 -70 -41 -11 -6 -33 -19 -50 -30 -16 -11 -39 -24 -50 -30 -11 -5 -27 -14 -35 -20 -33 -21 -172 -100 -177 -100 -3 0 -25 -13 -50 -30 -24 -16 -47 -30 -50 -30 -5 0 -135 -75 -173 -100 -8 -6 -22 -13 -30 -16 -17 -6 -20 -8 -115 -65 -38 -23 -72 -45 -75 -49 -14 -19 -48 -19 -73 0 -14 11 -32 20 -40 20 -8 0 -20 7 -27 15 -7 8 -18 15 -25 15 -6 0 -31 14 -53 30 -23 17 -48 30 -56 30 -8 0 -18 5 -21 11 -4 5 -17 14 -28 20 -12 5 -31 15 -42 21 -55 36 -104 65 -145 85 -48 25 -60 32 -128 76 -24 15 -47 27 -52 27 -5 0 -26 12 -47 26 -21 14 -47 30 -58 35 -11 5 -33 18 -50 29 -16 11 -41 24 -54 30 -13 6 -38 21 -55 33 -35 25 -64 43 -86 53 -8 4 -24 15 -36 26 -20 18 -21 18 -39 -2 -10 -11 -24 -20 -32 -20 -29 0 -10 -26 35 -48 26 -12 56 -28 67 -35 95 -59 168 -101 210 -123 17 -8 44 -23 60 -34 17 -11 39 -24 50 -30 11 -5 47 -26 80 -45 33 -19 69 -39 80 -45 11 -6 34 -19 50 -30 17 -11 37 -23 45 -27 8 -4 44 -24 79 -46 35 -21 74 -43 85 -48 22 -9 30 -14 104 -61 24 -16 45 -28 49 -28 3 0 25 -13 50 -30 45 -31 77 -38 88 -19 4 5 17 15 28 20 12 5 36 18 52 29 17 11 39 24 50 30 11 6 34 19 50 30 17 11 44 26 60 34 17 8 53 29 80 45 28 17 59 35 70 41 11 6 34 19 50 30 17 11 44 26 60 34 17 8 53 29 80 45 28 17 59 35 70 41 11 6 34 19 50 29 17 11 46 28 65 38 62 34 114 64 145 84 17 10 41 24 55 30 14 5 39 21 57 35 17 13 38 24 47 24 8 0 18 5 21 11 4 5 17 15 28 20 12 5 36 18 52 29 17 11 39 24 50 30 26 13 110 61 155 89 19 11 44 25 55 31 11 6 34 19 50 30 17 10 53 31 80 45 106 55 130 71 133 86 2 10 -6 18 -20 21 -13 3 -30 8 -38 12 -9 3 -28 -4 -45 -19z"/> <path d="M2675 5762 c-17 -9 -50 -29 -75 -43 -25 -14 -72 -41 -105 -59 -68 -37 -254 -142 -365 -206 -41 -23 -86 -49 -100 -56 -14 -8 -51 -29 -83 -48 -33 -19 -84 -49 -115 -67 -104 -58 -147 -83 -162 -93 -8 -6 -82 -49 -165 -96 -735 -421 -902 -521 -891 -532 5 -4 89 32 136 59 8 4 38 20 65 34 28 14 64 34 80 45 17 11 39 24 50 30 11 6 34 19 50 30 17 11 42 25 57 31 16 6 28 15 28 20 0 5 9 9 19 9 11 0 23 5 26 11 4 5 17 15 28 20 12 5 36 18 52 29 17 11 39 24 50 30 11 5 27 14 35 19 8 5 22 12 30 15 8 4 29 15 45 26 17 11 39 24 50 30 11 6 34 19 50 30 17 11 39 24 50 30 11 6 47 26 80 45 33 19 69 39 80 45 11 6 34 19 50 30 17 11 42 25 58 31 15 6 27 14 27 19 0 4 8 10 18 14 9 3 24 10 32 15 8 5 22 12 30 15 8 4 29 15 45 26 17 11 39 24 50 30 11 6 34 19 50 30 17 11 36 22 43 25 6 3 18 7 25 10 6 3 26 14 42 25 17 11 39 24 50 30 11 6 32 18 47 28 15 9 97 59 182 111 86 51 156 97 156 102 0 5 9 9 20 9 11 0 23 7 26 15 4 8 16 15 29 15 13 0 25 7 29 15 3 8 12 15 20 15 8 0 18 5 21 10 9 15 -16 11 -50 -8z"/> <path d="M6213 5773 c-20 -8 -15 -40 9 -57 19 -14 23 -14 34 1 23 32 -7 71 -43 56z"/> <path d="M2796 5741 c-20 -22 -18 -55 4 -58 24 -5 41 12 43 42 2 36 -22 44 -47 16z"/> <path d="M3850 5724 c-8 -3 -23 -16 -33 -30 -18 -24 -18 -24 5 -33 28 -11 100 26 96 49 -3 15 -39 22 -68 14z"/> <path d="M8030 5678 c0 -13 -7 -32 -15 -42 -8 -11 -15 -27 -15 -37 0 -9 -7 -22 -15 -29 -8 -7 -15 -19 -15 -27 0 -7 -9 -26 -19 -41 -11 -15 -22 -38 -26 -51 l-7 -24 37 21 c20 12 40 20 45 17 4 -2 5 -45 2 -95 -5 -102 -1 -107 55 -64 l33 25 0 100 0 99 45 22 c25 12 45 28 45 35 0 7 -4 13 -8 13 -4 0 -31 23 -60 50 -57 55 -82 63 -82 28z"/> <path d="M2713 5683 c-7 -2 -13 -16 -13 -30 0 -20 4 -24 23 -21 16 2 22 10 22 27 0 25 -11 33 -32 24z"/> <path d="M9210 5670 c-13 -11 -27 -20 -32 -20 -4 0 -8 -4 -8 -10 0 -6 26 -10 58 -10 45 0 65 -5 82 -20 13 -11 29 -20 37 -20 7 0 13 -4 13 -10 0 -5 11 -10 25 -10 14 0 25 4 25 10 0 5 -11 12 -25 16 -14 3 -25 10 -25 14 0 4 -11 11 -25 14 -14 4 -25 11 -25 16 0 6 -7 10 -15 10 -8 0 -23 9 -32 20 -10 11 -20 20 -24 20 -3 0 -16 -9 -29 -20z"/> <path d="M3710 5642 c-67 -45 -45 -94 26 -56 26 14 34 25 34 46 0 33 -21 36 -60 10z"/> <path d="M2606 5628 c-36 -51 -3 -89 40 -47 16 17 22 31 18 47 -8 28 -38 29 -58 0z"/> <path d="M9120 5610 c0 -6 -12 -15 -26 -21 -15 -5 -24 -12 -21 -16 7 -7 73 23 82 37 3 6 -3 10 -14 10 -12 0 -21 -5 -21 -10z"/> <path d="M5990 5423 c-1 -135 -4 -184 -15 -203 -17 -29 -20 -185 -5 -224 11 -30 38 -34 46 -8 3 9 10 25 15 36 12 20 27 120 37 247 4 48 14 94 21 102 8 11 10 30 6 61 -8 52 -4 54 50 32 32 -14 35 -19 35 -56 0 -23 -7 -54 -15 -71 -22 -42 -18 -304 5 -304 17 0 88 -72 96 -97 3 -12 15 -18 33 -18 15 0 35 -6 46 -13 16 -13 15 -15 -22 -20 -22 -4 -48 -16 -57 -26 -10 -11 -31 -23 -47 -26 -16 -4 -29 -13 -29 -21 0 -20 -8 -18 -40 15 -18 17 -44 31 -69 35 -66 10 -47 36 51 69 25 9 21 87 -4 87 -10 0 -18 -5 -18 -11 0 -5 -17 -17 -37 -25 -21 -8 -46 -19 -55 -24 -10 -6 -24 -10 -31 -10 -19 0 -60 -46 -52 -59 3 -6 15 -11 25 -11 10 0 22 -4 25 -10 3 -5 15 -10 26 -10 11 0 22 -6 25 -14 3 -8 18 -19 32 -25 30 -12 59 -30 80 -48 7 -7 18 -13 23 -13 6 0 26 -12 45 -26 32 -25 37 -26 62 -13 15 7 34 19 42 25 8 7 53 32 100 56 47 24 85 49 85 55 0 11 -98 67 -217 125 -26 13 -50 30 -53 38 -2 8 -1 60 3 115 5 55 5 120 1 145 -4 25 -8 97 -8 161 -1 64 -4 118 -7 121 -3 3 -27 -1 -55 -10 -49 -16 -50 -16 -107 13 -31 16 -60 31 -64 33 -5 2 -8 -77 -8 -175z m370 -606 c-35 -33 -105 -61 -127 -52 -16 7 -15 9 7 13 14 2 32 10 40 17 8 7 27 17 43 20 15 4 30 11 33 16 3 5 10 9 17 9 6 0 0 -10 -13 -23z"/> <path d="M3563 5558 c-55 -38 -39 -74 23 -55 39 12 60 43 43 63 -16 19 -29 18 -66 -8z"/> <path d="M9015 5550 c-3 -5 3 -10 14 -10 12 0 21 5 21 10 0 6 -6 10 -14 10 -8 0 -18 -4 -21 -10z"/> <path d="M8966 5515 c-3 -9 -18 -15 -36 -15 -20 0 -30 -5 -30 -15 0 -8 -9 -15 -19 -15 -11 0 -23 -4 -26 -10 -3 -5 0 -10 8 -10 20 0 120 55 125 69 6 17 -15 13 -22 -4z"/> <path d="M2510 5500 c0 -5 -11 -12 -25 -16 -30 -7 -33 -24 -5 -24 11 0 20 4 20 9 0 5 9 13 20 16 23 7 27 25 5 25 -8 0 -15 -4 -15 -10z"/> <path d="M7700 5495 c0 -17 -64 -155 -97 -207 -13 -21 -23 -40 -23 -43 0 -11 22 -4 50 17 16 12 33 18 37 14 5 -4 6 -48 4 -97 -2 -75 -1 -89 12 -89 9 0 19 5 22 11 4 5 18 14 31 19 22 9 23 14 26 122 l3 112 32 8 c18 5 37 17 42 27 8 14 4 22 -22 41 -18 13 -42 36 -55 51 -25 31 -62 39 -62 14z"/> <path d="M3417 5470 c-32 -26 -35 -46 -6 -55 25 -8 90 33 87 55 -5 24 -51 23 -81 0z"/> <path d="M2395 5435 c-16 -8 -39 -14 -51 -15 -11 0 -30 -13 -42 -30 -13 -16 -28 -30 -34 -30 -6 0 -44 -20 -85 -45 -40 -25 -76 -45 -78 -45 -3 0 -54 -29 -114 -65 -60 -36 -113 -65 -117 -65 -4 0 -22 -11 -40 -25 -18 -14 -36 -25 -40 -25 -3 0 -39 -19 -78 -43 -39 -24 -78 -46 -86 -50 -8 -4 -28 -16 -45 -27 -16 -11 -39 -24 -50 -29 -11 -5 -96 -55 -190 -111 -93 -56 -177 -105 -185 -109 -24 -10 -146 -79 -264 -149 -105 -62 -157 -102 -136 -102 12 0 123 54 165 80 17 10 48 28 70 40 22 12 60 36 85 53 25 17 63 43 85 58 43 29 95 57 165 88 25 11 70 34 100 52 119 68 226 130 240 139 8 6 22 13 30 17 8 4 58 32 110 63 52 31 102 59 110 63 8 4 29 16 45 27 17 11 39 24 50 30 11 5 47 26 80 45 33 19 69 39 80 45 11 6 34 19 50 30 17 11 37 23 45 27 8 3 31 19 51 35 20 15 41 28 46 28 6 0 18 9 28 20 10 11 24 20 31 20 7 0 16 5 19 10 8 14 -14 11 -50 -5z"/> <path d="M8810 5430 c0 -5 6 -10 14 -10 8 0 18 5 21 10 3 6 -3 10 -14 10 -12 0 -21 -4 -21 -10z"/> <path d="M3293 5402 c-43 -20 -56 -72 -18 -72 18 0 85 40 85 50 0 19 -13 40 -24 39 -6 -1 -25 -8 -43 -17z"/> <path d="M9883 5393 c-9 -3 -13 -28 -13 -73 0 -79 14 -93 61 -58 26 19 28 26 23 57 -4 20 -16 46 -27 59 -21 23 -24 24 -44 15z"/> <path d="M8696 5365 c-3 -8 -12 -15 -21 -15 -8 0 -15 -4 -15 -10 0 -17 24 -11 55 15 28 22 28 24 9 25 -12 0 -24 -7 -28 -15z"/> <path d="M3162 5324 c-12 -8 -22 -24 -22 -35 0 -27 55 -27 70 0 13 26 13 29 -8 40 -14 7 -25 6 -40 -5z"/> <path d="M11399 5322 c-13 -10 -31 -22 -39 -25 -8 -4 -28 -16 -45 -27 -16 -10 -53 -30 -81 -44 -29 -14 -54 -32 -57 -40 -7 -18 12 -95 30 -121 7 -11 13 -38 13 -60 0 -23 5 -46 12 -53 7 -7 16 -38 20 -70 19 -147 22 -157 42 -154 21 4 160 105 214 155 35 34 39 52 17 81 -8 11 -15 40 -15 65 -1 25 -7 57 -15 71 -8 14 -14 43 -15 65 0 58 -30 175 -45 175 -7 0 -23 -8 -36 -18z m12 -152 c13 -8 19 -21 19 -48 0 -20 7 -50 15 -66 8 -16 18 -46 21 -67 8 -47 -4 -50 -68 -19 -23 11 -47 20 -52 20 -21 0 -106 82 -106 101 0 36 18 55 62 68 24 8 48 15 53 16 20 6 37 5 56 -5z m-57 -227 c8 -21 -17 -48 -38 -40 -9 4 -16 18 -16 32 0 20 5 25 24 25 13 0 27 -8 30 -17z"/> <path d="M9977 5323 c-4 -6 -2 -91 2 -124 1 -4 13 -10 27 -13 14 -4 35 -16 47 -27 25 -23 74 -49 92 -49 7 0 16 -7 19 -16 4 -10 14 -14 25 -11 13 3 22 -3 30 -19 6 -13 15 -24 21 -24 13 0 13 47 0 55 -15 9 -12 36 6 56 20 23 9 42 -22 36 -16 -3 -25 1 -29 12 -3 9 -18 25 -35 34 -16 10 -30 22 -30 28 0 5 -13 9 -30 9 -25 0 -30 -4 -30 -24 0 -13 -3 -31 -6 -40 -11 -30 -24 -5 -24 48 0 28 -5 57 -12 64 -13 13 -44 16 -51 5z m168 -129 c16 -30 17 -37 4 -45 -32 -20 -49 -11 -49 29 0 63 16 69 45 16z"/> <path d="M8553 5291 c-29 -14 -53 -29 -53 -33 0 -4 12 -11 26 -14 25 -6 26 -10 21 -49 -5 -36 -3 -47 18 -69 14 -15 25 -29 25 -31 0 -3 8 -14 18 -26 41 -49 118 -64 160 -30 48 41 16 109 -72 152 -58 29 -95 34 -99 14 -1 -5 9 -12 23 -13 13 -2 40 -17 60 -32 19 -15 44 -29 55 -31 15 -3 21 -13 23 -42 3 -36 3 -37 -33 -37 -22 0 -38 6 -41 15 -4 8 -14 15 -24 15 -10 0 -23 7 -30 15 -7 8 -19 15 -26 15 -14 0 -16 13 -19 103 -1 42 4 53 29 78 25 25 27 29 10 28 -10 -1 -43 -14 -71 -28z"/> <path d="M4216 5301 c-4 -6 -23 -11 -43 -11 -23 0 -45 -9 -65 -25 -16 -14 -41 -25 -54 -25 -16 0 -38 -13 -58 -35 -19 -20 -43 -35 -56 -35 -13 0 -36 -14 -54 -33 -18 -19 -57 -44 -91 -57 -33 -13 -69 -31 -80 -40 -11 -10 -36 -23 -56 -29 -20 -7 -65 -32 -100 -56 -35 -25 -76 -47 -90 -50 -14 -3 -47 -24 -73 -45 -27 -23 -59 -40 -72 -40 -16 0 -40 -15 -64 -40 -22 -22 -43 -40 -47 -40 -11 -1 -46 -50 -40 -56 5 -5 120 50 212 102 33 18 69 38 80 44 11 6 34 19 50 30 17 10 41 25 55 32 14 8 57 33 95 57 39 23 79 47 90 53 11 6 27 15 35 20 8 4 24 13 35 18 11 6 34 19 50 30 17 11 40 24 52 29 11 5 24 15 28 20 3 6 15 11 26 11 10 0 19 4 19 8 0 4 24 20 53 35 28 16 66 37 82 47 17 11 40 25 53 31 12 7 22 16 22 21 0 17 50 7 77 -16 l28 -24 2 -844 c1 -463 -1 -847 -5 -853 -7 -10 -57 -38 -169 -95 -35 -17 -63 -35 -63 -39 0 -5 19 -16 43 -25 23 -10 49 -22 57 -27 8 -5 31 -16 50 -25 19 -10 43 -24 52 -31 18 -16 64 -14 61 2 -1 6 -10 14 -20 20 -121 64 -147 115 -63 127 15 2 26 11 30 25 5 24 31 58 48 64 6 2 11 55 13 129 4 231 -2 1505 -7 1540 -3 19 -18 50 -33 67 -28 34 -83 53 -95 34z"/> <path d="M7372 5253 c0 -53 8 -76 17 -50 8 23 1 97 -9 97 -5 0 -8 -21 -8 -47z"/> <path d="M2559 5230 c-14 -10 -56 -35 -95 -55 -38 -20 -96 -52 -129 -71 -33 -19 -71 -39 -84 -44 -13 -6 -37 -20 -54 -32 -17 -12 -45 -29 -61 -38 -76 -40 -172 -93 -180 -101 -6 -5 -18 -9 -28 -9 -10 0 -19 -3 -19 -7 -5 -23 -7 -501 -3 -515 3 -10 10 -18 16 -18 5 0 30 -13 55 -30 24 -16 47 -30 50 -30 4 0 14 -7 24 -16 16 -14 22 -12 81 28 35 24 83 53 108 66 25 13 59 32 75 42 17 10 50 30 75 43 25 14 61 34 80 46 19 11 44 25 55 31 11 6 34 19 50 30 17 11 42 25 58 31 15 6 27 15 27 20 0 5 6 9 13 9 7 0 28 11 47 24 l35 24 1 247 1 247 -41 25 c-23 13 -52 33 -66 42 -41 29 -63 32 -91 11z m21 -65 c7 -8 27 -19 44 -23 43 -11 46 -42 6 -64 -21 -12 -30 -25 -30 -43 0 -15 -11 -36 -24 -48 -25 -23 -25 -23 -8 -72 l17 -50 3 49 c4 55 39 103 67 92 20 -7 20 -75 0 -102 -8 -10 -15 -29 -15 -42 0 -12 -7 -39 -15 -59 -12 -29 -13 -43 -3 -74 10 -34 9 -42 -7 -59 -10 -11 -28 -20 -40 -20 -20 0 -23 6 -28 68 -7 79 -14 102 -33 102 -11 0 -14 -19 -14 -84 0 -45 -5 -96 -11 -112 -11 -31 -51 -67 -84 -77 -41 -13 -48 5 -56 139 -8 129 -2 164 26 164 25 0 29 -23 26 -127 -2 -99 -2 -103 18 -103 20 0 21 5 21 135 0 96 3 135 12 135 16 0 48 30 48 46 0 7 -9 16 -21 19 -24 8 -129 -60 -129 -83 0 -8 -6 -12 -15 -9 -42 17 -205 -69 -205 -108 0 -13 -6 -15 -30 -10 l-30 7 0 -179 c0 -139 -3 -184 -14 -199 -14 -18 -16 -17 -50 18 l-36 37 -4 128 c-2 71 -7 154 -11 185 l-8 58 45 -6 c44 -6 45 -6 51 24 6 30 45 61 146 116 19 10 41 25 50 33 63 53 91 73 115 79 15 3 33 15 39 25 7 11 22 19 36 19 14 0 40 17 68 45 47 48 63 54 83 30z m-268 -392 c22 -20 23 -70 1 -95 -15 -17 -15 -19 0 -36 11 -12 17 -36 17 -64 0 -37 -6 -52 -32 -80 -34 -37 -86 -68 -112 -68 -14 0 -16 20 -13 152 l2 151 50 28 c60 33 63 34 87 12z"/> <path d="M2246 4703 c-12 -13 -6 -53 9 -53 9 0 15 9 15 24 0 26 -12 40 -24 29z"/> <path d="M2240 4580 c-10 -18 1 -60 15 -60 11 0 25 43 20 60 -8 26 -21 25 -35 0z"/> <path d="M8387 5190 c-14 -11 -30 -20 -36 -20 -6 0 -11 -5 -11 -11 0 -11 17 -10 83 7 20 4 33 1 47 -11 11 -10 26 -15 35 -12 22 9 19 27 -5 27 -11 0 -29 9 -40 20 -11 11 -26 20 -34 20 -7 0 -25 -9 -39 -20z"/> <path d="M9855 5190 c-12 -38 5 -81 38 -96 18 -8 46 -23 62 -34 17 -11 36 -22 43 -25 6 -3 18 -7 25 -10 6 -3 26 -14 42 -25 17 -11 39 -24 50 -30 11 -6 34 -19 50 -29 17 -11 50 -30 74 -42 42 -21 43 -23 38 -60 -6 -44 12 -68 34 -46 8 7 31 23 52 36 20 12 37 27 37 32 0 6 -12 27 -27 46 -16 20 -37 58 -49 85 -24 58 -38 65 -42 23 -4 -35 -19 -55 -30 -39 -4 6 -34 25 -67 43 -119 65 -295 174 -295 182 0 18 -29 8 -35 -11z"/> <path d="M4195 5169 c-16 -10 -39 -23 -50 -29 -42 -23 -67 -38 -78 -49 -6 -6 -19 -11 -29 -11 -10 0 -18 -4 -18 -9 0 -5 -12 -14 -27 -20 -16 -6 -37 -16 -48 -23 -11 -7 -38 -24 -60 -38 -22 -14 -70 -41 -107 -60 -38 -19 -68 -38 -68 -42 0 -11 60 -34 109 -43 25 -4 45 -14 51 -26 6 -10 17 -19 25 -19 26 0 16 16 -20 36 -19 10 -35 20 -35 21 0 12 45 73 54 73 7 0 25 13 41 30 15 16 40 32 56 35 15 4 45 20 65 36 47 37 111 40 135 6 18 -26 25 -182 8 -192 -7 -5 -6 -11 1 -20 6 -8 10 -41 8 -77 -3 -54 -6 -63 -23 -66 -38 -7 -37 -21 3 -61 22 -23 42 -41 45 -41 2 0 5 137 5 305 1 168 -2 305 -6 304 -4 0 -20 -9 -37 -20z"/> <path d="M7374 5086 c0 -41 4 -78 9 -82 4 -4 7 27 7 69 0 42 -4 78 -9 81 -4 3 -8 -28 -7 -68z"/> <path d="M11100 5149 c-13 -6 -39 -21 -57 -34 -17 -14 -38 -25 -47 -25 -8 0 -18 -5 -21 -11 -4 -5 -17 -15 -28 -20 -89 -39 -92 -48 -62 -174 9 -38 20 -99 26 -134 14 -105 29 -175 37 -182 7 -7 44 8 177 72 33 16 65 29 71 29 17 0 44 34 44 56 0 10 -9 33 -20 49 -12 18 -20 47 -20 71 0 25 -6 47 -15 54 -10 8 -15 30 -15 64 0 29 -6 58 -12 65 -8 7 -13 37 -13 68 0 60 -6 67 -45 52z m16 -189 c52 -107 37 -194 -36 -224 -39 -16 -44 -16 -61 0 -10 9 -21 29 -24 45 -4 16 -11 31 -16 34 -11 8 -12 115 0 133 12 20 84 62 101 59 8 -1 25 -22 36 -47z"/> <path d="M10608 5143 c-2 -5 -2 -99 0 -210 3 -176 6 -202 20 -207 10 -3 31 -15 47 -26 70 -46 100 -48 89 -4 -8 31 20 64 54 64 22 0 24 3 18 33 -3 17 -11 66 -17 107 -15 100 -21 110 -93 163 -33 25 -70 54 -80 66 -20 22 -32 26 -38 14z"/> <path d="M8284 5125 c-4 -8 -14 -15 -24 -15 -11 0 -22 -4 -25 -10 -10 -16 31 -11 45 5 7 8 18 15 26 15 7 0 16 5 19 10 3 6 -3 10 -15 10 -11 0 -23 -7 -26 -15z"/> <path d="M8180 5070 c0 -5 9 -10 20 -10 11 0 20 5 20 10 0 6 -9 10 -20 10 -11 0 -20 -4 -20 -10z"/> <path d="M8817 5063 c-14 -14 -5 -18 39 -19 32 -1 49 -6 56 -17 5 -10 16 -17 25 -17 9 0 25 -7 35 -17 23 -21 33 -11 16 17 -25 41 -146 79 -171 53z"/> <path d="M8130 5035 c0 -9 -9 -15 -25 -15 -14 0 -25 -4 -25 -10 0 -15 25 -12 59 8 36 20 40 32 11 32 -11 0 -20 -7 -20 -15z"/> <path d="M8800 4994 c0 -48 75 -97 149 -98 32 -1 47 -6 55 -20 19 -34 79 -87 114 -102 40 -16 82 -18 82 -4 0 6 -11 10 -25 10 -14 0 -28 7 -31 15 -4 8 -12 15 -19 15 -7 0 -18 7 -25 15 -7 8 -23 15 -36 15 -19 0 -23 6 -26 37 -3 35 -5 38 -38 40 -63 4 -98 13 -110 28 -7 8 -21 15 -31 15 -11 0 -24 11 -31 25 -13 28 -28 33 -28 9z"/> <path d="M11611 4974 c0 -16 -8 -39 -16 -50 -19 -25 -19 -44 0 -44 8 0 15 -9 15 -19 0 -17 27 -78 40 -91 20 -20 50 -72 50 -88 0 -16 41 -62 55 -62 18 0 -14 131 -33 138 -7 2 -12 8 -12 14 0 26 -36 80 -62 94 -23 12 -29 21 -25 37 3 12 2 40 -3 62 -7 36 -8 37 -9 9z"/> <path d="M8030 4980 c0 -5 7 -10 15 -10 8 0 15 5 15 10 0 6 -7 10 -15 10 -8 0 -15 -4 -15 -10z"/> <path d="M7970 4952 c0 -14 11 -21 26 -15 21 8 17 23 -6 23 -11 0 -20 -4 -20 -8z"/> <path d="M9047 4944 c-13 -13 5 -24 39 -24 19 0 34 -4 34 -9 0 -10 38 -34 73 -47 12 -5 17 -17 17 -46 0 -49 23 -48 28 2 6 56 -82 130 -156 130 -16 0 -32 -3 -35 -6z"/> <path d="M9707 4885 c-17 -17 -28 -37 -29 -58 -1 -18 -2 -46 -3 -63 -3 -49 -12 -64 -39 -64 -14 0 -39 -8 -56 -19 l-31 -18 24 -16 c13 -8 43 -20 68 -27 49 -13 99 -37 114 -54 23 -26 75 -55 107 -61 23 -4 51 0 87 14 44 16 53 17 58 5 12 -32 -5 -47 -47 -40 -22 3 -40 3 -40 0 0 -11 48 -52 70 -59 11 -3 20 -11 20 -16 0 -5 30 -24 68 -42 37 -18 99 -52 137 -77 39 -25 84 -52 100 -59 17 -7 37 -17 45 -22 8 -5 24 -13 35 -18 12 -5 27 -16 34 -25 7 -9 20 -16 27 -16 8 0 14 -4 14 -8 0 -10 71 -42 93 -42 9 0 19 -4 22 -10 3 -5 13 -10 21 -10 9 0 36 -17 62 -38 75 -62 182 -102 182 -69 0 29 73 39 84 11 9 -23 8 -24 -16 -24 -30 0 -68 -11 -68 -19 0 -12 106 -88 141 -101 31 -11 39 -11 60 3 13 10 33 17 44 17 12 0 30 7 41 15 10 8 31 15 45 15 14 0 34 7 45 15 10 8 25 15 32 15 12 0 192 86 237 113 35 21 80 51 91 62 6 5 22 17 34 25 33 22 101 81 132 115 37 39 35 61 -7 81 -33 16 -36 15 -57 -5 -93 -85 -127 -114 -162 -138 -23 -16 -43 -30 -46 -33 -9 -9 -45 -29 -115 -63 -86 -41 -127 -56 -185 -68 -25 -5 -58 -14 -73 -20 -23 -10 -39 -8 -84 7 -30 10 -65 29 -77 40 -53 54 -66 74 -66 103 0 81 -109 221 -184 235 -52 10 -80 -6 -95 -54 -7 -22 -18 -43 -26 -46 -8 -3 -34 9 -57 28 -24 18 -59 42 -78 53 -19 10 -53 29 -75 42 -22 12 -49 27 -60 33 -11 6 -33 19 -50 30 -16 10 -50 29 -75 42 -25 13 -47 25 -50 29 -3 3 -25 15 -49 28 -85 43 -106 65 -118 125 -16 75 -66 149 -130 192 -61 41 -89 43 -126 9z m136 -93 c53 -49 86 -152 61 -189 -17 -27 -33 -29 -71 -7 -68 40 -116 149 -92 212 8 21 14 24 41 18 18 -3 45 -19 61 -34z m894 -511 c63 -46 107 -156 82 -204 -16 -29 -71 -17 -109 25 -35 37 -70 109 -70 142 0 26 26 66 44 66 7 0 31 -13 53 -29z m-154 -82 c9 -17 17 -39 17 -49 0 -10 5 -22 10 -25 6 -3 10 -11 10 -18 0 -6 -18 7 -40 28 -37 36 -50 72 -33 88 11 12 18 8 36 -24z"/> <path d="M7870 4890 c0 -5 6 -10 14 -10 8 0 18 5 21 10 3 6 -3 10 -14 10 -12 0 -21 -4 -21 -10z"/> <path d="M7820 4860 c0 -5 6 -10 14 -10 8 0 18 5 21 10 3 6 -3 10 -14 10 -12 0 -21 -4 -21 -10z"/> <path d="M9295 4820 c-19 -7 -18 -9 8 -19 15 -6 27 -15 27 -21 0 -5 9 -10 19 -10 11 0 23 -5 26 -11 4 -5 18 -14 31 -19 13 -5 24 -16 24 -25 0 -8 5 -15 10 -15 21 0 1 53 -29 78 -17 13 -88 53 -93 51 -2 0 -12 -4 -23 -9z"/> <path d="M3571 4801 c-10 -7 -10 -10 -1 -16 6 -4 16 -3 22 3 13 13 -4 23 -21 13z"/> <path d="M7710 4800 c0 -5 6 -10 14 -10 8 0 18 5 21 10 3 6 -3 10 -14 10 -12 0 -21 -4 -21 -10z"/> <path d="M7665 4770 c-3 -5 1 -10 9 -10 8 0 18 5 21 10 3 6 -1 10 -9 10 -8 0 -18 -4 -21 -10z"/> <path d="M9230 4751 c0 -25 81 -108 113 -116 32 -8 77 -3 80 10 1 6 -13 11 -30 13 -18 2 -33 7 -33 12 0 9 -36 31 -82 51 -17 6 -28 19 -28 30 0 10 -4 19 -10 19 -5 0 -10 -9 -10 -19z"/> <path d="M7617 4754 c-9 -10 2 -24 19 -24 8 0 14 7 14 15 0 15 -21 21 -33 9z"/> <path d="M1221 4674 c-22 -20 -41 -41 -41 -46 0 -5 -7 -17 -16 -26 -14 -14 -16 -32 -10 -121 5 -89 4 -107 -11 -123 -9 -10 -23 -18 -32 -18 -9 -1 -34 -12 -56 -25 -22 -14 -52 -30 -67 -36 l-28 -11 -2 -464 c-1 -255 -2 -479 -2 -496 -1 -30 4 -35 59 -65 33 -18 67 -36 75 -40 8 -4 43 -24 78 -45 34 -21 66 -38 71 -38 17 0 21 31 10 73 -6 25 -11 203 -12 444 -2 306 -5 405 -14 414 -8 8 -16 9 -22 3 -5 -5 -12 -151 -15 -324 -3 -173 -5 -316 -6 -317 0 -2 -7 -3 -15 -3 -13 0 -15 7 -9 36 4 21 1 52 -6 74 -7 21 -9 47 -5 57 4 10 6 115 6 233 -2 202 -10 280 -32 280 -5 0 -9 -155 -9 -380 0 -214 4 -380 9 -380 19 0 43 -52 34 -73 -9 -19 -12 -17 -57 26 -26 26 -54 47 -61 47 -10 0 -13 81 -14 389 -1 298 -5 400 -15 435 -8 25 -11 46 -8 46 16 0 99 -46 110 -61 10 -14 18 -16 45 -8 27 8 35 6 49 -11 19 -23 41 -26 60 -6 8 7 24 17 36 20 12 4 22 12 22 17 0 5 6 9 13 9 8 0 27 11 43 25 67 58 -33 44 -118 -16 -48 -35 -120 -12 -133 43 -5 21 -3 27 13 33 15 4 20 14 19 33 -2 19 3 27 18 30 11 2 25 10 32 18 7 10 13 11 17 5 10 -16 76 19 76 41 0 10 10 20 24 24 14 3 27 12 30 20 3 8 14 14 24 14 10 0 30 9 43 21 l24 21 3 -27 c2 -16 -1 -31 -6 -34 -27 -17 -25 -281 3 -281 17 0 24 20 18 51 -7 35 13 79 36 79 23 0 36 29 21 44 -8 8 -14 6 -21 -6 -6 -10 -14 -18 -19 -18 -16 0 -11 93 5 114 8 11 15 27 15 36 0 38 65 66 87 38 6 -7 13 -62 16 -122 6 -104 16 -142 32 -116 4 6 9 35 11 63 2 29 5 63 7 77 3 14 5 31 6 38 1 15 41 16 41 1 0 -6 11 -25 25 -41 21 -25 25 -38 20 -72 -2 -22 -7 -117 -10 -211 -5 -165 -6 -172 -36 -233 -30 -62 -31 -69 -36 -224 -3 -134 -7 -167 -24 -203 -13 -28 -29 -45 -45 -49 -13 -4 -24 -11 -24 -16 0 -13 37 -13 45 0 10 17 72 12 79 -6 14 -37 -7 -101 -44 -131 -13 -11 -13 -12 3 -13 9 0 17 5 17 10 0 6 4 10 9 10 6 0 10 -67 10 -164 0 -163 5 -216 22 -216 5 0 9 200 9 467 l0 467 22 32 c13 18 33 39 46 45 l22 13 -2 274 -3 274 -40 14 c-22 7 -51 14 -64 14 -15 0 -38 15 -60 38 -60 61 -102 92 -126 92 -13 0 -25 -4 -27 -9 -5 -16 -109 -81 -129 -81 -17 0 -18 7 -12 85 6 80 5 87 -17 110 -32 34 -60 31 -109 -11z m87 -113 c2 -77 0 -97 -14 -112 -9 -11 -22 -19 -27 -19 -6 0 -21 -9 -33 -21 -12 -12 -27 -18 -33 -14 -12 7 -14 78 -5 148 8 57 56 120 88 115 19 -3 21 -10 24 -97z"/> <path d="M7640 4690 c0 -5 -11 -12 -25 -16 -39 -10 -29 -27 33 -56 31 -15 80 -41 107 -58 28 -16 59 -34 70 -40 11 -6 34 -19 50 -30 17 -11 44 -26 60 -35 17 -8 53 -28 80 -45 28 -16 59 -34 70 -40 11 -6 43 -24 70 -41 28 -16 64 -37 80 -45 17 -8 44 -23 60 -34 17 -11 37 -23 45 -27 18 -8 208 -118 230 -133 8 -6 24 -15 35 -20 11 -6 43 -24 70 -41 28 -16 64 -37 80 -45 17 -8 44 -23 60 -34 17 -11 39 -24 50 -30 11 -6 43 -24 70 -41 28 -16 64 -37 80 -45 17 -8 44 -23 60 -34 17 -11 37 -23 45 -27 8 -4 47 -26 85 -48 39 -23 77 -44 85 -48 8 -4 29 -16 45 -27 17 -11 39 -24 50 -30 11 -6 47 -26 80 -45 33 -19 69 -40 80 -45 11 -6 34 -19 50 -30 17 -11 39 -24 50 -30 11 -6 43 -24 70 -41 28 -16 64 -37 80 -45 17 -8 44 -23 60 -34 17 -11 37 -23 45 -27 17 -8 158 -89 180 -103 8 -6 24 -14 35 -19 11 -5 36 -23 55 -41 42 -39 80 -37 137 8 40 31 111 74 153 92 13 6 27 14 30 18 3 4 16 13 30 19 14 7 48 26 75 43 28 16 62 35 78 41 15 6 27 15 27 20 0 5 6 9 13 9 8 0 33 14 55 30 23 17 46 30 50 30 5 0 17 9 27 20 18 20 18 20 54 -2 20 -12 41 -28 48 -34 7 -7 32 -22 55 -34 24 -12 57 -30 73 -41 17 -10 39 -23 50 -29 11 -6 43 -24 70 -41 28 -16 61 -35 75 -42 14 -6 27 -15 30 -19 3 -4 17 -12 30 -18 14 -5 48 -24 75 -41 28 -17 62 -35 78 -42 30 -13 30 -10 27 -124 -2 -86 5 -99 37 -67 23 23 58 14 58 -15 0 -24 -6 -29 -60 -53 l-30 -13 -2 -338 c-1 -344 -4 -367 -39 -367 -8 0 -14 -7 -14 -15 0 -26 40 -17 89 21 2 2 11 27 21 56 14 44 18 95 19 298 2 261 6 294 43 372 20 43 26 49 48 45 45 -9 140 50 140 87 0 8 5 18 10 21 16 10 11 45 -10 72 l-20 25 23 19 22 18 -35 1 c-33 1 -37 5 -68 68 -43 90 -42 102 8 102 27 0 40 -4 40 -14 0 -7 7 -19 15 -26 8 -7 15 -20 15 -29 0 -9 12 -27 25 -40 l25 -23 0 24 c0 34 -30 93 -61 116 -14 11 -43 22 -65 24 -32 2 -40 7 -42 26 -6 37 -32 27 -32 -13 0 -26 4 -35 17 -35 13 0 14 -3 5 -12 -7 -7 -12 -20 -12 -31 0 -29 31 -115 46 -128 20 -16 17 -46 -4 -58 -10 -5 -31 -28 -46 -49 -28 -41 -66 -62 -66 -36 0 8 -5 14 -11 14 -5 0 -17 16 -25 36 -34 82 -60 103 -259 220 -55 32 -111 66 -124 76 -13 10 -31 18 -39 18 -8 0 -30 11 -48 25 -18 14 -38 25 -45 25 -7 0 -27 12 -46 26 -49 37 -135 56 -193 42 -25 -6 -52 -16 -60 -22 -26 -20 -78 -46 -90 -46 -6 0 -30 -13 -53 -28 -113 -77 -160 -106 -227 -138 -19 -9 -51 -34 -71 -55 -20 -22 -41 -39 -48 -39 -20 0 -117 49 -224 112 -54 32 -100 58 -102 58 -2 0 -59 33 -126 73 -68 40 -131 76 -139 80 -8 4 -31 17 -50 28 -19 12 -53 32 -75 43 -22 12 -59 34 -82 49 -24 15 -45 27 -47 27 -4 0 -198 111 -226 130 -8 6 -22 13 -30 17 -16 7 -205 117 -230 133 -8 6 -22 13 -30 17 -8 4 -70 40 -138 80 -67 40 -124 73 -126 73 -3 0 -50 27 -106 60 -56 33 -103 60 -105 60 -3 0 -247 142 -275 160 -8 6 -22 13 -30 17 -8 4 -47 26 -86 50 -39 24 -75 43 -79 43 -5 0 -16 6 -24 14 -9 7 -43 28 -76 46 -33 18 -90 53 -127 76 -65 43 -98 54 -98 34z m4180 -1600 c0 -22 -11 -40 -42 -69 -36 -34 -50 -41 -85 -41 -36 0 -43 3 -43 19 0 11 20 36 45 57 25 20 45 43 45 50 0 10 13 14 40 14 38 0 40 -2 40 -30z"/> <path d="M3315 4665 c-22 -14 -49 -29 -60 -35 -32 -16 -57 -33 -102 -68 -39 -30 -41 -34 -29 -57 17 -32 55 -65 75 -65 11 0 8 7 -12 26 -17 15 -26 32 -23 41 3 8 6 16 6 19 0 9 156 77 189 81 26 3 54 -4 103 -26 72 -33 88 -37 88 -21 0 6 -7 10 -15 10 -8 0 -23 7 -32 15 -24 21 -140 105 -144 105 -2 -1 -22 -12 -44 -25z"/> <path d="M10845 4679 c-11 -17 -10 -78 2 -90 26 -26 42 21 27 79 -7 24 -19 29 -29 11z"/> <path d="M9464 4645 c-12 -29 7 -66 48 -95 48 -35 80 -45 105 -35 15 6 13 9 -12 18 -16 5 -34 16 -38 23 -4 8 -16 14 -26 14 -25 0 -51 32 -51 63 0 29 -17 37 -26 12z"/> <path d="M10765 4609 c-7 -38 -4 -44 21 -65 30 -24 59 -31 68 -15 3 5 -3 11 -14 14 -15 4 -20 14 -20 40 0 48 -9 67 -30 67 -14 0 -20 -11 -25 -41z"/> <path d="M11649 4587 c-33 -28 -42 -52 -23 -67 8 -7 14 -22 14 -33 0 -21 0 -21 19 -2 20 20 40 125 24 125 -4 -1 -20 -11 -34 -23z"/> <path d="M3560 4536 c0 -7 70 -46 82 -46 6 0 -1 11 -16 25 -23 21 -66 35 -66 21z"/> <path d="M663 4520 c-40 -16 -59 -82 -27 -94 21 -8 18 -9 48 19 19 18 26 33 24 52 -3 30 -14 35 -45 23z"/> <path d="M3027 4503 c-40 -31 -44 -44 -22 -67 20 -20 19 -23 -10 -28 -17 -4 -26 0 -30 13 -8 23 -36 33 -51 17 -17 -18 -6 -178 12 -185 8 -3 27 6 44 20 16 14 40 29 52 32 47 15 57 33 51 90 -4 37 -1 66 11 94 15 39 15 41 -2 41 -11 0 -35 -12 -55 -27z"/> <path d="M11570 4523 c0 -5 -13 -22 -29 -38 -20 -23 -29 -44 -33 -80 -3 -28 -9 -58 -13 -67 -6 -15 -4 -16 19 -5 14 7 26 16 26 21 0 6 10 21 23 35 23 25 47 90 47 125 0 9 -8 16 -20 16 -11 0 -20 -3 -20 -7z"/> <path d="M535 4487 c-4 -10 -5 -21 -1 -24 10 -10 18 4 13 24 -4 17 -4 17 -12 0z"/> <path d="M2643 4463 c-7 -2 -13 -11 -13 -18 0 -8 -13 -30 -30 -48 -29 -33 -41 -87 -20 -87 6 0 32 15 58 33 26 18 62 39 80 46 40 17 41 41 3 64 -29 17 -54 20 -78 10z"/> <path d="M9720 4440 c0 -15 62 -50 89 -50 20 0 21 2 11 15 -7 8 -18 15 -25 15 -7 0 -18 7 -25 15 -14 17 -50 20 -50 5z"/> <path d="M11443 4418 c-29 -31 -36 -131 -10 -136 11 -2 17 3 17 16 0 11 7 43 17 71 19 61 8 84 -24 49z"/> <path d="M2793 4376 c-29 -16 -63 -47 -63 -56 0 -22 46 -15 97 14 1 1 4 13 8 29 8 30 -4 34 -42 13z"/> <path d="M11351 4361 c-15 -21 -21 -44 -21 -85 0 -102 36 -58 57 70 7 43 -11 50 -36 15z"/> <path d="M3320 4360 c0 -5 8 -10 19 -10 10 0 24 -7 31 -15 13 -16 40 -21 40 -7 0 10 -58 42 -76 42 -8 0 -14 -4 -14 -10z"/> <path d="M11268 4283 c-3 -31 -10 -59 -16 -61 -21 -7 -12 -22 13 -22 27 0 29 7 39 93 5 41 3 47 -13 47 -15 0 -19 -10 -23 -57z"/> <path d="M9940 4319 c0 -30 109 -86 137 -70 12 6 9 11 -16 19 -17 6 -31 16 -31 21 0 6 -8 11 -19 11 -10 0 -24 7 -31 15 -15 17 -40 20 -40 4z"/> <path d="M11212 4318 c-24 -24 -8 -99 17 -84 13 8 15 82 3 90 -5 3 -14 0 -20 -6z"/> <path d="M2376 4304 c-9 -8 -16 -20 -16 -26 0 -5 -13 -27 -30 -48 -54 -68 -33 -92 36 -42 21 15 58 36 82 46 49 22 52 36 16 65 -32 25 -67 27 -88 5z"/> <path d="M3435 4300 c3 -5 13 -10 21 -10 8 0 14 5 14 10 0 6 -9 10 -21 10 -11 0 -17 -4 -14 -10z"/> <path d="M11113 4297 c-48 -11 -50 -18 -29 -87 13 -43 15 -45 47 -42 38 3 82 38 62 50 -6 4 -13 25 -15 46 -3 45 -8 47 -65 33z"/> <path d="M3135 4290 c-9 -15 20 -40 46 -40 21 0 21 1 -5 25 -31 28 -32 29 -41 15z"/> <path d="M2606 4259 c-31 -24 -26 -34 22 -44 31 -6 32 -6 32 29 0 42 -15 46 -54 15z"/> <path d="M6720 4235 c-39 -41 -36 -52 8 -29 23 11 32 22 32 40 0 13 -1 24 -3 24 -2 0 -18 -16 -37 -35z"/> <path d="M3230 4231 c0 -5 9 -13 20 -16 11 -3 20 -11 20 -16 0 -5 9 -9 20 -9 11 0 20 5 20 10 0 6 -9 10 -20 10 -11 0 -23 7 -26 15 -7 16 -34 21 -34 6z"/> <path d="M4136 4213 c-3 -3 12 -23 34 -43 l40 -37 -6 -89 c-7 -107 -18 -134 -53 -134 -25 0 -23 -3 24 -48 28 -26 53 -46 58 -44 4 2 7 84 7 183 0 162 -2 180 -17 185 -10 3 -29 11 -43 17 -14 6 -28 12 -31 14 -3 1 -9 0 -13 -4z"/> <path d="M2498 4194 c-31 -16 -35 -29 -14 -37 14 -6 66 31 66 46 0 11 -23 8 -52 -9z"/> <path d="M10150 4202 c0 -4 11 -19 25 -34 29 -31 95 -54 122 -43 15 6 14 9 -12 17 -16 6 -37 17 -46 24 -8 8 -23 14 -33 14 -9 0 -19 7 -22 15 -6 15 -34 21 -34 7z"/> <path d="M5516 4181 c-3 -4 -1 -23 5 -42 6 -20 7 -79 3 -146 -8 -129 -2 -163 26 -163 15 0 20 7 20 29 0 46 38 119 87 167 25 24 50 44 54 44 26 0 3 28 -38 48 -65 32 -93 48 -106 61 -13 13 -44 15 -51 2z"/> <path d="M3122 4168 c6 -17 36 -34 45 -24 4 4 -1 14 -11 22 -24 17 -39 18 -34 2z"/> <path d="M3335 4170 c3 -5 13 -10 21 -10 8 0 12 5 9 10 -3 6 -13 10 -21 10 -8 0 -12 -4 -9 -10z"/> <path d="M10920 4173 c1 -13 24 -37 52 -56 30 -19 162 -25 173 -7 7 11 -10 14 -72 10 -33 -1 -55 5 -93 29 -53 33 -60 36 -60 24z"/> <path d="M11825 4165 c11 -8 25 -19 32 -25 14 -12 53 -14 53 -2 0 10 -71 42 -91 42 -9 -1 -8 -5 6 -15z"/> <path d="M2123 4162 c-6 -4 -17 -19 -23 -32 -6 -14 -22 -40 -35 -59 -31 -43 -31 -51 0 -51 14 0 25 4 25 9 0 4 34 25 75 46 41 21 75 41 75 44 0 3 -15 16 -33 29 -34 23 -63 28 -84 14z"/> <path d="M2587 4143 c-17 -16 -6 -54 18 -63 21 -8 32 -6 55 12 17 12 30 24 30 27 0 6 -72 31 -88 31 -5 0 -12 -3 -15 -7z"/> <path d="M2710 4146 c0 -2 7 -16 15 -32 12 -23 15 -25 21 -11 8 23 -2 47 -21 47 -8 0 -15 -2 -15 -4z"/> <path d="M2374 4122 c-12 -2 -30 -12 -39 -22 -19 -21 -21 -19 30 -35 8 -2 20 8 29 25 16 32 12 38 -20 32z"/> <path d="M10365 4107 c-16 -38 79 -119 121 -103 13 5 9 11 -20 31 -20 14 -46 25 -56 25 -13 0 -22 10 -28 33 -8 26 -11 29 -17 14z"/> <path d="M11923 4108 c2 -7 10 -13 17 -13 7 0 15 6 18 13 2 7 -5 12 -18 12 -13 0 -20 -5 -17 -12z"/> <path d="M11980 4082 c0 -15 34 -40 63 -47 15 -4 27 -11 27 -15 0 -4 12 -13 28 -19 15 -6 41 -20 57 -30 33 -21 65 -27 65 -11 0 6 -9 10 -20 10 -11 0 -23 7 -26 15 -4 8 -17 15 -30 15 -13 0 -24 4 -24 9 0 10 -31 30 -82 53 -16 7 -28 16 -28 20 0 4 -7 8 -15 8 -8 0 -15 -4 -15 -8z"/> <path d="M2238 4041 c-16 -10 -25 -21 -22 -24 8 -8 64 24 64 35 0 12 -12 9 -42 -11z"/> <path d="M6305 4050 c-3 -5 -18 -10 -32 -10 -41 0 -150 -58 -182 -97 -24 -29 -28 -40 -19 -58 20 -43 60 -57 164 -54 53 2 106 8 118 14 13 7 40 15 62 19 21 5 44 11 49 16 6 4 23 10 39 14 26 6 27 8 12 25 -18 19 -22 76 -6 86 19 12 10 22 -33 39 -47 18 -162 22 -172 6z m128 -45 c29 -12 34 -18 30 -37 -7 -30 -42 -68 -62 -68 -9 0 -29 -7 -45 -15 -17 -9 -53 -15 -90 -14 -64 1 -88 6 -121 26 -19 11 -19 12 9 42 15 16 39 32 52 35 13 4 24 11 24 16 0 6 12 10 28 11 15 0 36 4 47 9 31 14 89 11 128 -5z"/> <path d="M2105 3982 c-16 -8 -41 -26 -55 -39 -14 -13 -37 -27 -52 -30 -16 -3 -28 -9 -28 -14 0 -4 -10 -11 -22 -15 -22 -7 -34 -15 -69 -46 -10 -10 -26 -18 -34 -18 -8 0 -15 -4 -15 -10 0 -5 -6 -10 -14 -10 -21 0 -26 -23 -26 -128 0 -122 5 -142 36 -142 12 0 26 -4 29 -10 3 -5 17 -10 30 -10 12 0 25 -7 29 -15 3 -8 15 -15 26 -15 11 0 23 -7 26 -15 4 -8 11 -15 17 -15 6 0 18 -7 28 -16 19 -17 55 -12 44 5 -3 6 -36 25 -73 43 -37 18 -77 42 -89 52 -26 23 -31 74 -8 82 22 9 18 24 -5 24 -11 0 -20 -4 -20 -10 0 -13 -27 -13 -35 0 -4 6 -4 43 0 83 l7 73 67 32 c37 18 85 49 107 69 38 35 40 35 82 24 35 -9 47 -8 67 5 16 11 34 14 55 9 16 -4 30 -5 30 -2 0 2 -15 21 -33 41 -36 39 -56 42 -102 18z"/> <path d="M2334 3989 c-4 -7 3 -20 16 -29 19 -14 28 -16 48 -7 22 10 23 11 4 18 -11 4 -23 12 -27 18 -8 14 -32 14 -41 0z"/> <path d="M6703 3983 c-13 -2 -23 -9 -23 -14 0 -15 36 -10 50 6 7 8 9 14 4 14 -5 -1 -19 -4 -31 -6z"/> <path d="M10610 3932 c0 -13 43 -49 68 -57 33 -10 28 17 -8 43 -29 22 -60 29 -60 14z"/> <path d="M12232 3928 c3 -7 13 -15 24 -17 10 -2 32 -14 49 -26 16 -13 53 -35 80 -50 28 -14 88 -48 134 -75 46 -28 87 -50 91 -50 4 0 17 -9 30 -20 27 -24 50 -26 50 -5 0 8 -6 15 -14 15 -8 0 -21 6 -28 14 -8 7 -24 17 -36 20 -12 4 -22 12 -22 17 0 5 -9 9 -19 9 -11 0 -26 6 -33 13 -16 16 -91 62 -128 77 -13 6 -27 15 -30 19 -7 11 -70 41 -85 41 -7 0 -15 7 -19 15 -7 18 -50 21 -44 3z"/> <path d="M2304 3906 c-10 -26 15 -56 45 -56 16 0 37 -10 51 -25 17 -18 34 -25 62 -25 21 0 38 5 38 10 0 6 -11 10 -25 10 -14 0 -28 7 -31 15 -4 8 -17 15 -30 15 -14 0 -24 6 -24 14 0 13 -57 56 -74 56 -4 0 -9 -6 -12 -14z"/> <path d="M2066 3844 c-18 -17 -21 -50 -6 -59 6 -3 10 -14 10 -25 0 -29 27 -32 44 -5 9 14 28 32 42 42 25 16 27 16 39 0 16 -23 32 -21 40 3 9 27 -3 60 -21 60 -8 0 -29 -7 -45 -16 -28 -14 -32 -14 -48 0 -22 20 -35 20 -55 0z"/> <path d="M2853 3811 c-18 -10 -57 -37 -86 -60 -33 -25 -64 -41 -81 -41 -16 0 -45 -13 -65 -28 -20 -16 -43 -32 -51 -35 -8 -4 -28 -16 -45 -27 -16 -11 -43 -26 -60 -34 -16 -8 -52 -29 -80 -45 -27 -17 -59 -35 -70 -41 -11 -5 -27 -14 -35 -19 -8 -5 -32 -17 -54 -27 -37 -19 -56 -46 -56 -85 0 -22 44 -27 57 -6 8 13 57 48 83 60 8 4 29 16 45 26 17 11 48 29 70 41 22 12 58 34 80 49 22 14 72 42 110 61 39 19 72 38 75 41 3 4 14 9 25 11 14 3 20 11 18 30 -1 22 3 26 33 31 57 9 185 77 182 96 -4 23 -56 24 -95 2z"/> <path d="M10832 3798 c4 -29 89 -72 124 -64 30 8 22 26 -11 26 -12 0 -25 7 -29 15 -3 8 -13 15 -21 15 -9 0 -23 7 -31 15 -22 22 -36 18 -32 -7z"/> <path d="M5542 3774 c-25 -17 -21 -31 14 -44 23 -9 23 -13 26 -131 2 -82 7 -124 15 -126 13 -5 28 33 24 60 -1 10 3 33 9 52 10 31 14 34 38 29 15 -4 34 -13 43 -20 8 -8 20 -14 26 -14 6 0 16 -6 22 -13 6 -8 37 -22 68 -32 32 -9 67 -22 78 -28 43 -22 311 -45 328 -28 6 6 37 11 69 11 31 0 72 7 90 14 18 8 54 18 80 21 26 3 50 10 53 16 4 5 25 9 48 9 27 1 57 10 82 25 22 14 55 25 75 25 24 0 39 6 48 20 8 13 23 20 45 20 17 0 52 5 77 11 52 12 119 5 146 -16 18 -13 17 -16 -24 -53 -62 -56 -165 -81 -254 -63 -129 25 -130 25 -166 -8 -18 -17 -37 -31 -42 -31 -4 0 -23 -19 -42 -42 -18 -23 -57 -66 -85 -94 -51 -50 -65 -74 -42 -74 6 0 65 54 131 120 67 66 126 120 132 120 6 0 25 -8 41 -17 41 -23 198 -27 239 -7 16 8 35 14 42 14 43 0 154 87 154 120 0 21 -42 52 -103 75 -51 19 -45 20 -201 -14 -28 -6 -52 -15 -55 -20 -4 -5 -25 -12 -48 -16 -24 -4 -45 -11 -49 -16 -3 -5 -13 -9 -22 -9 -9 0 -30 -7 -46 -15 -15 -8 -36 -15 -45 -15 -9 0 -28 -6 -42 -13 -14 -8 -45 -17 -69 -21 -24 -4 -49 -11 -55 -15 -5 -5 -43 -11 -83 -15 -41 -3 -83 -11 -93 -17 -21 -11 -284 16 -304 31 -5 4 -25 11 -42 15 -18 3 -33 10 -33 15 0 4 -12 11 -27 15 -63 15 -201 132 -217 183 -9 26 -23 28 -54 6z"/> <path d="M11100 3770 c-12 -8 -11 -10 7 -10 12 0 30 -8 40 -18 10 -10 30 -23 45 -29 17 -8 28 -21 30 -38 4 -31 22 -34 26 -5 8 47 -109 125 -148 100z"/> <path d="M2996 3734 c-21 -19 -42 -34 -47 -34 -5 0 -9 -7 -9 -15 0 -8 7 -15 15 -15 21 0 30 -27 16 -44 -18 -21 3 -28 36 -12 15 8 42 20 58 27 17 7 40 22 53 33 l22 20 -26 23 c-15 13 -32 23 -37 23 -6 0 -18 6 -26 14 -14 13 -21 11 -55 -20z"/> <path d="M2560 3750 c0 -5 7 -10 15 -10 8 0 15 5 15 10 0 6 -7 10 -15 10 -8 0 -15 -4 -15 -10z"/> <path d="M11025 3730 c-5 -14 3 -32 25 -60 39 -49 53 -57 109 -61 53 -5 68 16 19 26 -18 4 -40 13 -48 19 -8 7 -30 18 -47 26 -24 9 -33 19 -33 36 0 30 -17 40 -25 14z"/> <path d="M4148 3701 c3 -9 12 -26 19 -37 13 -20 11 -25 -29 -59 -41 -35 -42 -37 -24 -51 23 -17 62 -19 71 -3 4 5 18 14 31 19 21 8 24 16 24 57 0 60 -5 67 -57 80 -37 9 -41 9 -35 -6z"/> <path d="M1966 3685 c-3 -8 -15 -15 -26 -15 -11 0 -20 -4 -20 -10 0 -14 11 -13 54 5 20 8 36 20 36 25 0 16 -37 12 -44 -5z"/> <path d="M12700 3670 c0 -13 28 -25 38 -16 3 4 0 11 -8 16 -20 13 -30 12 -30 0z"/> <path d="M11277 3653 c-16 -15 -5 -23 32 -23 22 0 44 -6 51 -15 7 -8 17 -15 22 -15 5 0 21 -9 35 -20 60 -47 57 -8 -3 43 -37 30 -53 37 -88 37 -23 0 -46 -3 -49 -7z"/> <path d="M12750 3631 c0 -5 10 -13 22 -17 12 -3 31 -15 42 -26 12 -11 53 -35 91 -53 39 -19 93 -49 121 -67 61 -40 69 -44 159 -92 39 -21 77 -44 86 -52 8 -8 19 -14 22 -14 15 0 114 -66 134 -89 l22 -26 1 25 c0 28 -17 45 -76 75 -21 11 -57 31 -79 45 -68 43 -78 48 -132 75 -29 14 -53 29 -53 34 0 5 -11 12 -25 15 -14 4 -25 11 -25 16 0 6 -8 10 -19 10 -10 0 -24 6 -30 14 -7 8 -23 17 -36 20 -14 4 -25 11 -25 16 0 6 -9 10 -20 10 -11 0 -23 6 -26 14 -3 8 -18 18 -34 21 -16 3 -40 17 -55 31 -26 24 -65 33 -65 15z"/> <path d="M2759 3603 c-19 -15 -36 -30 -39 -33 -3 -3 -16 -11 -30 -18 -14 -7 -50 -28 -80 -47 -30 -19 -79 -46 -107 -60 -29 -14 -55 -30 -58 -34 -7 -12 -151 -81 -167 -81 -8 0 -23 -6 -34 -14 -19 -14 -18 -15 5 -35 13 -12 30 -21 36 -21 7 0 18 -7 25 -15 15 -18 79 -20 86 -2 2 7 25 24 49 37 25 14 45 28 45 32 0 5 5 8 11 8 10 0 124 64 179 100 8 6 26 16 40 22 14 7 27 15 30 18 3 3 44 25 92 48 80 40 106 61 91 76 -4 3 -14 6 -24 6 -10 0 -24 6 -32 14 -8 8 -30 17 -49 21 -29 5 -40 2 -69 -22z"/> <path d="M11248 3614 c-20 -20 77 -134 114 -134 8 0 19 -5 25 -11 13 -13 43 -5 43 11 0 5 -9 10 -19 10 -10 0 -21 7 -25 15 -3 8 -12 15 -19 15 -8 0 -20 7 -27 15 -7 8 -21 15 -31 15 -11 0 -25 14 -35 35 -17 37 -18 38 -26 29z"/> <path d="M11458 3535 c-22 -29 -22 -35 -3 -35 9 0 15 -10 15 -26 0 -60 105 -142 171 -132 35 5 29 23 -9 26 -18 2 -36 10 -39 18 -3 8 -11 14 -18 14 -7 0 -18 7 -25 15 -7 8 -20 15 -30 15 -14 0 -19 12 -24 60 -4 33 -10 61 -14 64 -4 2 -15 -7 -24 -19z"/> <path d="M7577 3509 c-20 -35 -15 -49 11 -33 17 11 30 64 15 64 -4 0 -16 -14 -26 -31z"/> <path d="M11525 3531 c-18 -7 -16 -9 12 -15 17 -4 34 -14 37 -22 3 -8 12 -14 19 -14 8 0 20 -7 27 -15 13 -16 50 -21 50 -7 0 15 -56 62 -72 62 -9 0 -20 5 -23 10 -7 12 -22 12 -50 1z"/> <path d="M3940 3502 c0 -15 46 -52 63 -52 16 0 63 38 55 44 -9 8 -118 15 -118 8z"/> <path d="M5581 3441 c-16 -30 -13 -66 9 -108 21 -41 93 -117 131 -138 61 -35 171 -85 187 -85 9 -1 28 -7 42 -15 32 -18 338 -20 389 -2 45 16 58 38 43 72 -11 23 -14 24 -34 13 -16 -8 -78 -12 -198 -13 -180 0 -217 6 -302 51 -14 8 -31 14 -37 14 -12 0 -96 54 -130 84 -32 29 -71 91 -71 115 0 28 -17 35 -29 12z"/> <path d="M7505 3446 c-14 -10 -17 -18 -10 -25 15 -15 57 -2 53 17 -4 22 -21 25 -43 8z"/> <path d="M3130 3420 c0 -5 7 -10 15 -10 8 0 15 5 15 10 0 6 -7 10 -15 10 -8 0 -15 -4 -15 -10z"/> <path d="M3875 3420 c-3 -5 -15 -10 -25 -10 -32 0 -70 -22 -70 -41 0 -23 19 -34 33 -20 6 6 19 11 29 11 10 0 23 9 30 20 7 11 23 20 35 20 14 0 23 6 23 15 0 17 -45 21 -55 5z"/> <path d="M7555 3411 c-6 -11 51 -54 66 -49 12 4 -35 58 -50 58 -5 0 -12 -4 -16 -9z"/> <path d="M1792 3348 l3 -61 45 -15 c25 -8 47 -18 50 -22 5 -6 57 -35 125 -68 17 -8 44 -25 62 -38 17 -13 40 -24 51 -24 11 0 22 -7 26 -15 3 -8 14 -15 24 -15 11 0 25 -7 32 -15 16 -19 50 -20 50 -1 0 8 3 21 6 29 3 10 -6 20 -27 31 -39 20 -40 20 -33 1 5 -11 -1 -15 -24 -15 -21 0 -31 6 -35 19 -3 12 1 22 9 25 19 7 18 26 -2 26 -9 0 -33 14 -54 30 -21 17 -45 30 -54 30 -9 0 -19 7 -22 15 -4 8 -15 15 -25 15 -11 0 -22 7 -25 15 -4 8 -12 15 -19 15 -8 0 -20 6 -27 13 -7 7 -31 24 -53 37 -22 13 -44 30 -48 37 -4 7 -15 13 -23 13 -12 0 -14 -12 -12 -62z"/> <path d="M3990 3355 c-7 -8 -19 -15 -26 -15 -8 0 -14 -4 -14 -9 0 -5 -12 -14 -27 -20 -16 -6 -41 -20 -58 -31 -16 -11 -39 -24 -50 -30 -11 -6 -33 -19 -50 -29 -30 -20 -69 -42 -135 -77 -19 -11 -39 -24 -45 -31 -5 -6 -28 -21 -50 -33 -22 -12 -53 -30 -70 -41 -16 -10 -39 -23 -50 -29 -11 -6 -47 -26 -80 -45 -33 -19 -70 -40 -82 -45 -13 -5 -23 -14 -23 -20 0 -5 -9 -10 -19 -10 -11 0 -23 -5 -26 -11 -4 -5 -17 -15 -28 -20 -12 -5 -49 -25 -82 -43 -33 -19 -79 -44 -102 -57 -24 -12 -45 -31 -49 -41 -3 -11 -11 -17 -17 -15 -7 3 -36 -8 -64 -24 -29 -16 -57 -29 -63 -29 -6 0 -29 -13 -52 -30 -22 -16 -47 -30 -53 -30 -7 0 -15 -7 -19 -15 -3 -8 -14 -15 -24 -15 -11 0 -25 -7 -32 -15 -7 -8 -16 -15 -21 -15 -5 0 -28 -13 -51 -30 -22 -16 -47 -30 -55 -30 -7 0 -16 -7 -19 -15 -4 -8 -15 -15 -25 -15 -11 0 -22 -7 -25 -15 -3 -8 -16 -17 -27 -21 -12 -3 -35 -16 -52 -28 -16 -12 -51 -32 -77 -44 -27 -13 -48 -27 -48 -31 0 -5 -21 -16 -46 -26 -25 -9 -48 -23 -51 -31 -3 -8 -12 -14 -20 -14 -26 0 -86 -42 -73 -50 17 -11 72 6 83 25 4 8 16 15 26 15 10 0 36 13 58 29 23 16 60 35 83 42 23 7 49 23 57 35 9 14 29 25 52 29 22 4 48 17 59 30 11 13 34 26 51 30 17 3 39 17 49 30 10 13 36 28 58 34 21 6 44 19 51 30 6 10 28 22 47 25 22 4 42 16 52 31 9 14 54 43 100 65 46 23 86 45 89 50 3 5 24 15 46 22 22 6 46 19 52 29 7 9 31 22 54 28 24 7 57 25 75 41 18 17 42 33 53 36 11 4 31 16 45 29 14 12 38 26 54 29 16 4 45 20 65 37 20 16 45 29 56 29 12 0 34 13 49 29 15 16 43 32 62 36 24 4 38 15 49 35 9 17 22 30 29 30 16 0 148 60 156 71 3 3 28 17 55 29 28 12 69 36 93 52 44 30 68 33 130 13 16 -5 22 -3 22 8 0 8 -7 17 -15 21 -24 9 -17 26 10 26 14 0 25 -4 25 -10 0 -5 9 -10 20 -10 11 0 20 5 20 10 0 6 -7 10 -15 10 -8 0 -24 8 -34 18 -54 48 -70 53 -91 27z"/> <path d="M3708 3318 c-42 -22 -49 -38 -18 -38 11 0 20 4 20 9 0 5 10 11 22 13 13 2 24 11 26 21 4 21 -2 20 -50 -5z"/> <path d="M7633 3287 c-29 -13 -29 -23 -2 -38 17 -9 23 -8 30 2 21 33 6 52 -28 36z"/> <path d="M4150 3270 c0 -5 7 -10 15 -10 8 0 15 5 15 10 0 6 -7 10 -15 10 -8 0 -15 -4 -15 -10z"/> <path d="M4390 3245 c0 -12 47 -45 65 -45 12 0 4 28 -13 43 -23 21 -52 22 -52 2z"/> <path d="M7138 3247 c-7 -8 -25 -16 -38 -19 -71 -16 -158 -40 -179 -51 -34 -17 -356 -16 -373 1 -7 7 -34 12 -62 12 -65 0 -49 -21 18 -23 28 -1 46 -7 46 -14 0 -7 15 -15 33 -18 36 -7 302 -1 327 7 8 2 42 10 75 17 33 7 74 19 92 27 17 8 39 14 48 14 9 0 25 4 35 10 14 8 34 2 88 -25 38 -20 78 -45 87 -55 24 -27 45 -25 45 3 0 17 -16 31 -65 60 -35 20 -68 37 -73 37 -6 0 -12 7 -16 15 -7 19 -69 20 -88 2z"/> <path d="M4200 3240 c0 -5 7 -10 15 -10 8 0 15 5 15 10 0 6 -7 10 -15 10 -8 0 -15 -4 -15 -10z"/> <path d="M4757 3236 c-7 -8 -22 -16 -33 -18 -10 -2 -20 -11 -22 -21 -3 -15 5 -17 67 -17 60 0 79 -5 128 -31 32 -18 87 -47 123 -67 86 -46 127 -77 136 -104 3 -12 13 -28 20 -36 8 -7 14 -27 14 -43 0 -24 4 -30 18 -27 25 5 28 75 5 109 -10 15 -30 45 -46 68 -25 37 -52 57 -127 92 -26 12 -34 16 -109 55 -24 13 -51 24 -60 24 -10 0 -21 4 -26 9 -19 16 -74 21 -88 7z"/> <path d="M3456 3205 c-9 -13 -16 -29 -16 -34 0 -14 -34 -31 -59 -31 -12 0 -30 -9 -40 -19 -10 -10 -29 -22 -41 -26 -12 -4 -37 -20 -55 -37 -19 -16 -39 -26 -45 -23 -14 9 -60 -33 -60 -53 0 -10 -7 -13 -22 -9 -13 4 -31 -1 -46 -13 -13 -11 -40 -22 -61 -26 -20 -4 -42 -11 -48 -17 -15 -11 -17 -43 -4 -51 11 -7 74 16 84 32 4 6 15 12 24 12 8 0 32 14 53 30 21 17 45 30 53 30 9 0 19 5 22 11 4 5 17 15 28 20 12 5 36 18 52 29 17 11 40 24 53 30 12 5 22 14 22 20 0 5 11 10 24 10 14 0 28 5 31 11 4 5 17 14 28 20 12 5 29 13 37 18 8 4 33 18 55 29 49 26 54 39 20 52 -43 16 -71 12 -89 -15z"/> <path d="M4310 3180 c0 -5 7 -10 15 -10 8 0 15 5 15 10 0 6 -7 10 -15 10 -8 0 -15 -4 -15 -10z"/> <path d="M4595 3176 c-19 -8 -40 -10 -59 -5 -16 5 -33 6 -38 3 -12 -8 1 -24 20 -24 9 0 30 -14 46 -30 16 -17 33 -30 36 -30 4 0 27 18 51 40 37 33 41 41 29 50 -20 13 -49 12 -85 -4z"/> <path d="M1800 3105 c0 -19 5 -35 10 -35 6 0 10 16 10 35 0 19 -4 35 -10 35 -5 0 -10 -16 -10 -35z"/> <path d="M925 3094 c-33 -19 -69 -39 -80 -44 -11 -6 -33 -19 -50 -29 -16 -11 -48 -29 -71 -40 -46 -24 -110 -78 -102 -87 10 -10 112 28 165 62 29 19 64 36 79 40 14 4 28 12 30 19 3 7 25 20 50 30 40 15 84 55 84 76 0 19 -47 6 -105 -27z"/> <path d="M4400 3120 c0 -5 9 -10 20 -10 11 0 20 5 20 10 0 6 -9 10 -20 10 -11 0 -20 -4 -20 -10z"/> <path d="M10095 3108 c-45 -15 -205 -95 -251 -126 -129 -85 -153 -104 -192 -146 -23 -25 -42 -52 -42 -61 0 -17 16 -20 25 -6 3 6 26 20 52 33 25 13 64 39 87 59 23 21 73 54 111 75 105 56 107 57 155 88 86 54 120 79 120 87 0 11 -26 10 -65 -3z"/> <path d="M1441 3101 c-10 -6 -12 -21 -8 -51 3 -23 8 -45 12 -48 13 -13 35 32 35 70 0 39 -11 47 -39 29z"/> <path d="M4742 3098 c5 -15 58 -24 58 -10 0 11 -24 22 -47 22 -8 0 -13 -6 -11 -12z"/> <path d="M4457 3094 c-11 -11 3 -24 24 -24 19 0 19 -1 4 -31 -22 -41 -16 -83 11 -87 21 -3 44 31 44 66 0 10 5 23 12 30 6 6 10 13 7 14 -52 33 -90 44 -102 32z"/> <path d="M13463 3063 c-7 -21 -53 -73 -64 -73 -5 0 -27 -13 -51 -29 -24 -16 -61 -39 -83 -50 -22 -12 -47 -26 -55 -31 -8 -5 -62 -37 -120 -70 -58 -33 -112 -65 -120 -70 -8 -6 -26 -15 -40 -21 -14 -6 -39 -21 -57 -35 -17 -13 -36 -24 -42 -24 -6 0 -27 -12 -48 -26 -21 -14 -47 -30 -58 -35 -11 -5 -33 -18 -50 -28 -16 -11 -46 -28 -65 -38 -87 -46 -156 -87 -171 -99 -8 -8 -19 -14 -22 -14 -4 0 -52 -27 -108 -60 -55 -33 -102 -60 -104 -60 -2 0 -36 -19 -77 -43 -40 -24 -80 -46 -88 -50 -8 -4 -28 -16 -45 -27 -16 -11 -37 -23 -45 -27 -17 -7 -207 -118 -230 -133 -8 -6 -24 -14 -35 -19 -11 -5 -37 -21 -58 -35 -21 -14 -40 -26 -42 -26 -2 0 -72 -41 -156 -90 -83 -50 -154 -90 -156 -90 -5 0 -137 -77 -173 -100 -8 -6 -22 -13 -30 -17 -8 -4 -59 -33 -113 -65 -55 -32 -101 -58 -104 -58 -3 0 -25 -13 -50 -30 -24 -16 -46 -30 -48 -30 -3 0 -39 -20 -81 -45 -41 -25 -77 -45 -79 -45 -3 0 -250 -144 -275 -160 -8 -6 -22 -13 -30 -17 -8 -4 -46 -25 -85 -48 -38 -22 -77 -44 -85 -48 -8 -4 -28 -16 -45 -26 -16 -11 -56 -34 -88 -51 -65 -35 -53 -37 -174 36 -40 24 -76 44 -80 44 -3 0 -14 6 -22 14 -15 12 -54 35 -156 90 -22 12 -59 34 -82 49 -24 15 -45 27 -47 27 -2 0 -50 27 -106 60 -56 33 -105 60 -110 60 -4 0 -26 18 -48 41 -44 44 -73 48 -82 12 -8 -34 -37 -63 -63 -63 -13 0 -36 -15 -55 -35 -18 -19 -45 -40 -60 -47 l-27 -13 -3 -224 c-1 -143 1 -228 8 -235 14 -14 13 -26 -3 -26 -14 0 -100 -59 -105 -72 -2 -5 -14 -8 -27 -8 -13 0 -27 -4 -30 -10 -3 -6 -17 -10 -30 -10 -13 0 -27 -4 -30 -10 -10 -16 14 -50 35 -50 18 0 80 -29 90 -42 3 -4 17 -12 30 -17 29 -13 59 -31 78 -49 7 -6 20 -12 28 -12 8 0 14 -4 14 -9 0 -5 13 -14 28 -20 34 -14 86 3 78 26 -4 9 3 13 19 13 19 0 25 5 25 21 0 18 4 20 25 15 18 -5 25 -2 25 9 0 10 10 15 30 15 36 0 82 20 77 34 -2 6 -13 13 -25 16 -13 3 -31 18 -41 33 -11 18 -21 25 -25 18 -4 -6 -19 -11 -33 -11 -29 0 -133 -97 -133 -124 0 -22 -13 -20 -35 4 -10 11 -26 20 -35 20 -10 0 -28 8 -41 18 -13 11 -36 22 -51 26 -28 6 -40 36 -14 36 7 0 19 7 26 15 7 8 33 25 57 37 25 13 48 28 50 35 8 20 19 16 51 -17 29 -28 62 -40 62 -22 0 13 -35 42 -51 42 -8 0 -30 14 -49 30 l-35 29 20 53 c15 42 20 79 20 180 0 109 3 129 18 140 15 11 16 17 5 46 -17 44 -2 67 43 67 l34 0 1 -60 c1 -38 -4 -69 -13 -83 -30 -49 20 -369 65 -414 8 -8 16 -8 27 2 13 11 15 30 9 129 -4 70 -12 122 -19 131 -15 17 -26 353 -12 366 4 4 21 -2 37 -14 16 -12 34 -22 40 -22 5 0 10 -4 10 -9 0 -5 12 -14 28 -20 15 -6 41 -20 57 -31 17 -11 39 -24 50 -30 11 -6 34 -19 50 -29 17 -11 53 -32 80 -47 89 -49 100 -55 130 -74 17 -11 39 -24 50 -30 11 -6 43 -24 70 -41 28 -16 64 -37 80 -45 17 -8 44 -23 60 -34 54 -35 78 -42 100 -30 11 6 34 18 50 27 17 9 32 19 35 22 3 4 16 12 30 18 14 7 48 26 75 42 28 17 59 35 70 41 11 6 34 19 50 30 17 11 39 24 50 30 11 6 47 26 80 45 33 19 69 39 80 45 11 6 34 19 50 30 17 10 53 31 80 45 28 14 64 34 80 45 17 11 39 24 50 30 11 6 34 19 50 29 17 11 50 31 75 44 25 14 61 34 80 46 19 11 44 25 55 31 11 6 34 19 50 30 17 11 39 24 51 29 19 8 136 76 174 101 8 6 25 14 37 19 11 6 24 15 28 20 3 6 12 11 20 11 8 0 31 12 52 26 21 14 47 30 58 35 11 5 34 18 50 29 17 11 39 24 51 29 11 5 50 27 85 48 35 22 71 42 79 46 8 4 29 16 45 27 17 11 39 24 51 29 11 5 50 27 85 48 35 22 71 42 79 46 8 4 29 16 45 26 17 11 50 31 75 44 25 14 61 34 80 46 19 11 44 25 55 31 11 6 34 19 50 30 17 11 41 25 55 30 13 6 27 14 30 18 3 4 25 17 50 30 25 13 59 32 75 42 17 11 39 24 50 30 11 6 47 26 80 45 33 19 69 40 80 45 11 6 34 19 50 30 17 11 39 24 50 30 11 6 29 16 40 23 11 7 52 30 90 52 39 22 79 45 90 52 11 7 27 15 35 19 8 4 47 26 85 49 39 22 77 44 85 48 8 4 29 16 45 27 17 11 39 24 50 30 78 42 122 77 129 105 4 14 13 25 21 25 11 0 15 11 15 40 0 29 -4 40 -15 40 -9 0 -18 -8 -22 -17z"/> <path d="M6396 3042 c-2 -4 -6 -41 -7 -82 -2 -71 -1 -75 19 -75 26 0 25 -4 16 85 -6 66 -16 91 -28 72z"/> <path d="M2540 3025 c0 -14 -39 -21 -92 -17 -10 1 -18 -5 -18 -13 0 -10 -11 -15 -32 -16 -18 0 -27 -3 -20 -6 6 -2 12 -11 12 -18 0 -8 10 -21 22 -29 19 -14 20 -16 5 -22 -10 -3 -23 -1 -31 5 -10 8 -16 8 -26 -4 -7 -8 -21 -15 -31 -15 -11 0 -36 -11 -57 -23 -20 -13 -54 -32 -75 -42 -21 -10 -43 -29 -48 -41 -9 -25 -3 -54 11 -54 13 0 183 90 201 106 8 8 19 14 23 14 4 0 22 11 40 25 18 14 44 25 58 25 14 0 31 7 38 15 7 8 21 15 31 15 12 0 26 13 36 36 17 35 17 36 -7 55 -30 23 -40 24 -40 4z"/> <path d="M1803 3014 c-3 -8 -1 -20 6 -27 8 -8 11 -4 11 16 0 30 -7 35 -17 11z"/> <path d="M4103 3013 c-15 -5 -18 -33 -4 -33 17 0 41 12 41 20 0 11 -22 18 -37 13z"/> <path d="M1393 2978 c-8 -13 -32 -30 -68 -48 -11 -6 -33 -19 -50 -30 -16 -11 -41 -25 -55 -30 -13 -6 -27 -14 -30 -18 -3 -4 -21 -15 -40 -26 -64 -34 -105 -57 -135 -77 -16 -10 -42 -24 -57 -30 -16 -6 -28 -15 -28 -19 0 -4 -11 -11 -25 -14 -14 -4 -25 -11 -25 -16 0 -6 -8 -10 -18 -10 -10 0 -23 -5 -29 -11 -11 -11 -36 -26 -78 -49 -11 -6 -33 -19 -50 -30 -16 -11 -41 -25 -55 -30 -13 -6 -27 -14 -30 -18 -3 -4 -25 -17 -50 -30 -25 -13 -58 -32 -75 -42 -16 -10 -54 -31 -84 -46 -71 -34 -88 -51 -74 -73 8 -13 82 -59 143 -88 8 -4 21 -13 28 -20 17 -17 86 -17 104 0 8 6 29 20 48 31 70 37 106 58 135 77 17 10 39 23 50 28 19 8 187 107 225 131 8 6 26 15 40 21 13 5 27 13 30 17 3 4 16 13 30 19 14 7 48 26 75 42 28 17 59 35 70 41 11 6 34 19 50 30 17 11 40 24 52 29 12 6 31 19 43 31 27 27 72 25 108 -5 17 -14 33 -25 37 -25 5 0 28 -16 52 -36 62 -51 78 -42 70 42 -7 75 -13 90 -31 75 -13 -11 -82 8 -95 25 -3 5 -28 20 -56 33 -27 13 -65 35 -83 49 -32 23 -34 27 -27 68 6 40 4 44 -14 44 -11 0 -24 -6 -28 -12z m-26 -132 c4 -14 24 -35 43 -48 19 -13 35 -30 35 -38 0 -9 -14 -17 -35 -21 -19 -3 -55 -15 -79 -27 -25 -12 -50 -22 -56 -22 -7 0 -20 -9 -30 -20 -10 -11 -22 -20 -27 -20 -5 0 -28 -13 -51 -28 -23 -16 -67 -41 -97 -56 -30 -16 -64 -36 -75 -46 -18 -17 -79 -50 -145 -80 -26 -11 -71 -38 -131 -78 -19 -12 -45 -25 -58 -29 -14 -3 -40 -16 -58 -29 -35 -23 -49 -23 -91 4 -25 16 -29 37 -8 45 8 3 20 18 28 34 8 17 25 31 48 38 19 5 55 25 79 43 25 18 74 47 110 65 37 17 71 37 78 43 6 6 26 17 45 24 18 8 55 29 82 47 26 18 54 33 62 33 8 0 14 4 14 9 0 12 57 41 81 41 10 0 23 9 29 20 6 11 36 33 68 50 31 16 68 38 82 49 33 27 47 26 57 -3z"/> <path d="M4021 2970 c-19 -5 -42 -18 -50 -29 -9 -11 -39 -28 -68 -36 -29 -9 -58 -24 -65 -34 -7 -10 -29 -27 -49 -37 -20 -11 -71 -37 -113 -58 -42 -21 -81 -47 -87 -57 -5 -11 -18 -19 -29 -19 -10 0 -21 -4 -24 -9 -3 -4 -44 -27 -90 -50 -47 -23 -88 -46 -91 -52 -4 -5 -27 -19 -53 -30 -26 -12 -54 -27 -62 -34 -14 -12 -71 -44 -172 -97 -20 -11 -42 -26 -49 -34 -6 -8 -18 -14 -27 -14 -8 0 -29 -11 -46 -24 -17 -13 -51 -33 -76 -46 -25 -12 -61 -34 -80 -49 -47 -35 -60 -42 -167 -95 -50 -25 -94 -50 -98 -56 -3 -6 -23 -17 -43 -26 -81 -33 -182 -115 -182 -147 0 -10 3 -17 8 -15 23 11 62 29 100 44 23 10 42 21 42 26 0 4 6 8 13 9 6 0 53 24 102 54 50 30 110 65 135 78 25 13 61 34 80 45 19 12 58 33 85 48 28 15 63 36 79 47 17 12 44 28 60 37 75 39 152 83 162 91 6 5 33 21 60 36 27 14 65 36 85 47 116 66 190 109 234 136 28 16 59 34 71 39 18 8 90 52 134 81 119 79 166 110 172 110 4 0 27 14 51 30 25 17 49 30 54 30 16 0 55 48 48 59 -7 12 -6 12 -54 1z"/> <path d="M4157 2969 c-17 -10 -16 -12 5 -35 13 -13 28 -24 35 -24 6 0 18 -6 25 -12 19 -18 76 -58 82 -58 3 0 39 -20 79 -45 41 -25 78 -45 81 -45 4 0 19 -8 34 -18 81 -55 110 -72 125 -72 9 0 17 -4 17 -8 0 -5 19 -17 43 -27 41 -17 84 -35 100 -43 4 -2 7 3 7 11 0 15 -41 67 -53 67 -13 0 -147 83 -147 91 0 4 -17 13 -37 20 -21 6 -51 23 -68 36 -43 35 -135 93 -147 93 -5 0 -33 15 -61 34 -60 39 -95 49 -120 35z"/> <path d="M4514 2926 c-6 -15 4 -32 43 -68 23 -22 38 -31 118 -73 28 -14 64 -35 80 -45 17 -10 50 -29 75 -42 25 -13 47 -26 48 -30 7 -15 67 -7 97 12 17 10 53 31 80 45 105 55 135 80 135 112 0 29 -15 29 -54 0 -17 -13 -38 -27 -46 -30 -8 -4 -28 -16 -45 -27 -16 -11 -40 -24 -52 -29 -11 -5 -24 -15 -28 -20 -3 -6 -22 -11 -42 -11 -26 0 -67 19 -160 75 -68 41 -127 75 -130 75 -4 0 -14 6 -22 13 -9 8 -33 24 -54 36 -32 19 -38 20 -43 7z"/> <path d="M7525 2869 c-33 -22 -77 -49 -98 -60 l-39 -20 -33 25 c-19 14 -39 26 -45 26 -7 0 -32 14 -57 30 -48 33 -90 38 -131 16 -44 -22 -94 -38 -147 -46 -27 -4 -68 -13 -90 -20 -80 -23 -344 -4 -408 31 -14 8 -26 3 -55 -22 -20 -18 -36 -35 -34 -38 5 -11 77 -33 132 -41 30 -5 88 -13 128 -20 73 -11 86 -10 293 19 30 5 65 13 77 20 11 6 29 11 39 11 10 1 36 9 58 20 51 24 86 25 116 2 13 -10 31 -22 39 -25 8 -4 29 -16 45 -27 68 -45 73 -46 123 -20 26 13 54 29 62 36 28 22 129 74 144 74 24 0 27 16 8 39 -31 37 -61 35 -127 -10z"/> <path d="M1798 2894 c-2 -5 -4 -81 -4 -169 l1 -159 33 -7 c33 -7 94 9 114 29 7 7 18 12 24 12 7 0 19 6 26 13 20 17 77 47 92 47 16 0 46 32 46 49 0 6 -14 14 -30 18 -17 3 -33 10 -36 14 -12 20 -49 6 -97 -36 -45 -40 -57 -45 -90 -43 -35 3 -40 7 -52 41 -19 56 -4 97 36 97 19 0 29 5 29 15 0 8 -4 15 -9 15 -6 0 -25 16 -44 36 -19 20 -36 33 -39 28z"/> <path d="M4100 2860 c-19 -11 -51 -27 -70 -36 -19 -9 -43 -23 -54 -32 -10 -10 -46 -31 -79 -47 -62 -30 -75 -47 -57 -75 8 -13 13 -13 37 2 15 9 44 24 63 35 19 10 39 23 45 30 5 7 28 20 49 28 21 9 45 23 53 31 8 8 20 14 27 14 20 0 49 38 43 55 -8 19 -14 18 -57 -5z"/> <path d="M2695 2850 c3 -5 15 -10 26 -10 11 0 17 5 14 10 -3 6 -15 10 -26 10 -11 0 -17 -4 -14 -10z"/> <path d="M2740 2814 c0 -11 -6 -13 -19 -9 -11 3 -22 1 -26 -5 -3 -5 1 -10 9 -10 9 0 16 -6 16 -13 0 -20 37 -50 52 -43 36 17 93 55 95 62 4 11 -66 34 -102 34 -16 0 -25 -6 -25 -16z"/> <path d="M11179 2736 c-9 -19 -17 -25 -31 -20 -14 4 -21 -2 -29 -25 -11 -31 -24 -40 -31 -20 -2 7 -11 7 -30 -1 -29 -13 -41 -51 -28 -85 4 -12 6 -33 3 -48 -4 -23 -2 -27 16 -27 28 0 38 26 17 49 -23 25 -20 48 9 67 33 21 48 10 41 -31 -4 -22 -2 -36 6 -41 6 -4 13 -3 15 3 2 6 10 19 17 29 11 15 17 16 28 6 8 -6 18 -9 21 -5 12 12 7 41 -8 47 -16 6 -21 56 -5 56 5 0 14 10 21 21 9 17 8 25 -5 37 -13 14 -16 13 -27 -12z"/> <path d="M4230 2740 c0 -5 7 -10 15 -10 8 0 15 5 15 10 0 6 -7 10 -15 10 -8 0 -15 -4 -15 -10z"/> <path d="M324 2715 c-3 -14 -4 -35 -1 -47 4 -12 2 -27 -4 -34 -17 -20 7 -64 35 -64 23 0 24 2 19 63 -6 87 -11 107 -28 107 -8 0 -17 -11 -21 -25z"/> <path d="M4153 2713 c-22 -8 -14 -23 12 -23 14 0 25 4 25 9 0 11 -21 19 -37 14z"/> <path d="M4320 2685 c7 -8 20 -15 28 -15 13 0 12 3 -4 15 -25 19 -40 19 -24 0z"/> <path d="M9550 2670 c-6 -11 -17 -20 -25 -20 -8 0 -15 -4 -15 -9 0 -5 -12 -14 -27 -20 -29 -11 -65 -32 -73 -42 -3 -4 -16 -10 -30 -14 -13 -4 -30 -14 -38 -21 -7 -8 -20 -14 -28 -14 -8 0 -14 -4 -14 -10 0 -5 -6 -10 -13 -10 -8 0 -24 -9 -37 -20 -13 -11 -29 -20 -37 -20 -7 0 -13 -4 -13 -9 0 -5 -12 -14 -27 -20 -16 -6 -50 -25 -78 -41 -27 -17 -61 -36 -75 -43 -14 -6 -27 -15 -30 -19 -3 -4 -17 -12 -30 -18 -14 -5 -38 -19 -55 -30 -16 -11 -39 -24 -50 -30 -75 -40 -86 -50 -54 -50 14 0 53 18 87 40 33 22 66 40 71 40 5 0 16 6 24 14 7 8 33 24 58 36 24 12 62 32 84 45 22 14 49 29 60 35 11 6 43 24 70 40 28 16 60 34 72 39 11 5 24 15 28 20 3 6 14 11 24 11 10 0 24 7 31 15 7 8 23 15 36 15 13 0 24 6 24 13 1 12 65 47 87 47 13 0 23 23 23 51 0 25 -16 24 -30 -1z"/> <path d="M9620 2631 c0 -32 -7 -75 -15 -94 -8 -20 -15 -56 -15 -80 0 -24 -5 -48 -11 -54 -13 -13 -30 -129 -22 -150 7 -18 211 -173 228 -173 19 0 35 47 35 104 0 30 6 60 15 72 8 10 15 37 15 59 0 22 6 49 14 60 7 11 16 40 19 64 3 25 12 48 21 53 9 5 16 15 16 22 0 17 -43 56 -63 56 -9 0 -19 5 -22 11 -4 5 -17 14 -28 20 -23 9 -31 14 -105 62 -24 15 -52 27 -63 27 -17 0 -19 -7 -19 -59z m162 -118 c78 -37 85 -62 32 -113 -44 -41 -169 -104 -192 -95 -10 4 -12 13 -8 33 4 15 11 50 17 77 5 28 17 67 26 88 20 46 43 48 125 10z m-4 -232 c-4 -32 -34 -40 -43 -12 -3 11 -1 30 5 41 9 17 14 19 26 9 8 -7 14 -24 12 -38z"/> <path d="M4052 2660 c14 -23 53 -27 61 -7 4 10 -2 13 -18 9 -12 -2 -26 1 -29 7 -4 6 -11 11 -17 11 -5 0 -4 -9 3 -20z"/> <path d="M2575 2650 c-3 -5 1 -10 9 -10 8 0 18 5 21 10 3 6 -1 10 -9 10 -8 0 -18 -4 -21 -10z"/> <path d="M4247 2654 c-14 -14 -6 -24 19 -24 16 0 24 5 22 13 -5 14 -31 21 -41 11z"/> <path d="M4407 2636 c-6 -16 2 -28 14 -20 12 7 11 34 0 34 -5 0 -11 -6 -14 -14z"/> <path d="M3770 2610 c0 -5 6 -10 14 -10 8 0 18 5 21 10 3 6 -3 10 -14 10 -12 0 -21 -4 -21 -10z"/> <path d="M3960 2604 c0 -11 6 -13 19 -9 11 3 29 0 40 -7 25 -15 39 -4 21 17 -17 21 -80 20 -80 -1z"/> <path d="M4140 2606 c0 -14 55 -30 71 -20 9 5 13 34 4 34 -3 0 -15 -6 -26 -12 -17 -10 -23 -10 -26 0 -6 16 -23 15 -23 -2z"/> <path d="M10947 2603 c-11 -10 -8 -61 3 -68 8 -5 7 -11 -1 -21 -17 -21 -26 -17 -33 16 -7 37 -30 48 -55 26 -10 -9 -23 -16 -29 -16 -8 0 -12 -22 -12 -65 0 -36 0 -68 -1 -72 0 -5 7 -9 15 -11 11 -2 16 4 16 20 1 25 31 68 49 68 6 0 11 -6 11 -14 0 -24 21 -30 27 -7 4 15 13 21 34 21 29 0 29 1 29 59 0 44 -4 60 -16 65 -20 8 -29 8 -37 -1z"/> <path d="M4340 2585 c0 -9 9 -15 25 -15 16 0 25 6 25 15 0 9 -9 15 -25 15 -16 0 -25 -6 -25 -15z"/> <path d="M3694 2576 c-10 -8 -16 -18 -11 -22 4 -4 13 -2 19 4 7 7 22 12 35 12 13 0 23 5 23 10 0 15 -43 12 -66 -4z"/> <path d="M2287 2560 c3 -11 9 -23 14 -26 12 -7 -42 -52 -78 -64 -28 -10 -58 -56 -43 -65 5 -3 15 2 23 10 9 8 25 15 36 15 12 0 21 4 21 9 0 6 36 27 80 47 44 21 80 40 80 43 0 7 -74 37 -112 45 -22 5 -25 3 -21 -14z"/> <path d="M1684 2553 c-7 -15 -15 -230 -14 -382 0 -44 21 -91 40 -91 15 0 9 482 -6 487 -6 2 -15 -4 -20 -14z"/> <path d="M3876 2546 c-9 -15 -12 -26 -6 -26 5 0 10 5 10 10 0 6 14 10 31 10 20 0 29 4 27 13 -8 23 -44 19 -62 -7z"/> <path d="M4067 2552 c-10 -10 -17 -25 -17 -33 1 -11 4 -10 14 4 17 22 55 22 72 0 7 -10 15 -15 19 -11 9 8 -43 58 -60 58 -7 0 -19 -8 -28 -18z"/> <path d="M4255 2550 c-7 -11 39 -25 55 -15 5 3 8 11 5 16 -8 12 -52 12 -60 -1z"/> <path d="M9480 2535 c0 -8 7 -15 15 -15 8 0 15 4 15 9 0 5 -7 11 -15 15 -9 3 -15 0 -15 -9z"/> <path d="M11136 2510 c-33 -22 -74 -47 -90 -55 -17 -9 -58 -31 -91 -50 -33 -20 -70 -39 -82 -45 -11 -5 -24 -14 -28 -19 -3 -6 -15 -11 -26 -11 -14 0 -19 7 -19 25 0 41 -26 29 -51 -22 -12 -27 -31 -59 -41 -72 -23 -30 -23 -70 0 -78 9 -4 29 -15 44 -26 40 -29 60 -17 52 33 -6 35 -4 41 17 50 13 6 38 19 54 30 17 10 53 31 80 45 28 14 64 34 80 45 46 29 75 46 132 74 44 22 53 32 59 60 12 67 -8 71 -90 16z"/> <path d="M3612 2533 c-19 -8 -4 -23 24 -23 16 0 24 5 22 13 -5 13 -26 18 -46 10z"/> <path d="M4436 2531 c-7 -11 14 -20 32 -14 6 3 12 9 12 14 0 12 -37 12 -44 0z"/> <path d="M1798 2358 c-3 -95 -2 -177 2 -181 8 -9 60 12 60 25 0 5 11 13 25 18 14 5 25 14 25 20 0 5 9 10 20 10 11 0 20 5 20 10 0 6 11 15 25 20 14 5 25 14 25 20 0 5 8 10 18 10 10 0 23 5 29 11 14 14 50 35 86 50 15 6 26 16 24 22 -6 19 -25 19 -45 -1 -11 -11 -36 -25 -56 -32 -21 -6 -42 -20 -49 -31 -6 -10 -19 -19 -29 -19 -9 0 -19 -4 -22 -9 -3 -5 -22 -12 -42 -15 -42 -8 -66 7 -62 38 1 12 -2 28 -7 36 -5 8 -10 41 -11 72 -3 63 -11 98 -24 98 -4 0 -10 -78 -12 -172z"/> <path d="M3792 2510 c14 -22 63 -28 55 -7 -2 6 -11 11 -20 9 -8 -1 -18 2 -22 8 -3 5 -10 10 -16 10 -5 0 -4 -9 3 -20z"/> <path d="M3973 2486 c-27 -28 -29 -36 -8 -36 8 0 15 6 15 14 0 8 11 16 25 18 31 4 38 22 10 26 -11 1 -30 -9 -42 -22z"/> <path d="M4170 2495 c0 -9 9 -15 24 -15 13 0 26 -7 30 -15 6 -16 36 -21 36 -6 0 5 -9 12 -19 16 -11 3 -22 12 -25 20 -7 20 -46 19 -46 0z"/> <path d="M4709 2487 c-19 -13 -41 -26 -49 -30 -8 -4 -24 -13 -35 -20 -11 -7 -52 -30 -90 -52 -39 -22 -79 -45 -90 -52 -11 -7 -27 -16 -35 -20 -8 -4 -46 -26 -85 -48 -38 -23 -77 -44 -85 -48 -8 -4 -28 -16 -45 -27 -16 -11 -39 -24 -50 -30 -11 -6 -33 -19 -50 -30 -16 -11 -43 -26 -60 -34 -16 -8 -52 -29 -80 -45 -27 -17 -59 -35 -70 -41 -11 -5 -27 -14 -35 -20 -22 -14 -162 -95 -180 -103 -8 -4 -28 -16 -45 -27 -16 -11 -39 -24 -50 -30 -11 -6 -33 -19 -50 -30 -16 -11 -34 -22 -40 -24 -5 -2 -17 -7 -25 -10 -8 -3 -28 -15 -45 -26 -16 -11 -39 -24 -50 -30 -11 -6 -33 -19 -50 -30 -16 -10 -52 -31 -80 -45 -27 -14 -63 -34 -80 -45 -16 -11 -39 -24 -50 -30 -30 -15 -56 -32 -97 -63 l-38 -29 -42 29 c-24 16 -50 32 -58 36 -8 4 -28 16 -45 27 -16 11 -40 24 -52 29 -11 5 -24 15 -28 20 -3 6 -15 11 -26 11 -10 0 -19 4 -19 8 0 4 -24 20 -52 35 -29 16 -66 37 -83 47 -16 11 -39 24 -50 30 -11 6 -33 19 -50 30 -16 11 -37 23 -45 26 -8 4 -22 13 -32 21 -21 19 -92 13 -96 -7 -2 -10 17 -25 55 -43 32 -15 72 -37 88 -47 17 -11 37 -23 45 -27 8 -4 47 -26 86 -50 39 -24 77 -43 83 -43 6 0 11 -4 11 -9 0 -5 12 -14 28 -20 15 -6 50 -25 77 -41 28 -17 61 -36 75 -43 14 -6 27 -14 30 -17 9 -10 90 -50 102 -50 6 0 43 20 83 44 39 24 82 47 93 50 12 4 22 12 22 17 0 5 5 9 11 9 10 0 124 64 179 100 8 6 26 16 40 22 14 7 52 29 85 48 33 20 67 39 75 43 8 4 29 16 45 27 17 11 42 25 58 31 15 6 27 15 27 20 0 5 5 9 11 9 10 0 123 63 179 100 8 6 24 14 36 19 19 8 137 77 174 101 8 6 27 15 43 21 15 6 27 15 27 20 0 5 5 9 11 9 6 0 56 27 111 60 54 33 101 60 105 60 3 0 53 29 112 64 162 97 172 103 234 133 61 29 68 40 39 66 -23 21 -23 21 -63 -6z"/> <path d="M9942 2498 c-7 -7 -12 -40 -12 -79 0 -47 -5 -72 -15 -83 -9 -9 -15 -33 -15 -64 0 -32 -5 -54 -15 -62 -9 -7 -15 -29 -15 -51 0 -26 -7 -44 -21 -58 -34 -31 -17 -52 73 -94 46 -22 110 -52 143 -68 40 -19 62 -26 69 -19 6 6 16 50 23 98 14 99 36 215 54 285 15 56 12 60 -66 102 -27 14 -63 35 -80 46 -16 10 -40 23 -52 28 -11 5 -24 15 -28 20 -8 14 -28 14 -43 -1z m112 -163 c49 -29 76 -88 56 -124 -5 -11 -10 -27 -10 -37 0 -9 -11 -36 -25 -59 -22 -39 -27 -42 -54 -36 -39 8 -79 44 -87 78 -13 49 38 203 67 203 6 0 30 -11 53 -25z"/> <path d="M4345 2489 c-13 -19 5 -23 38 -6 l32 16 -32 0 c-17 1 -35 -4 -38 -10z"/> <path d="M10395 2448 c-27 -22 -51 -44 -53 -49 -2 -5 -8 -9 -13 -9 -5 0 -17 -8 -28 -19 -18 -18 -23 -35 -40 -138 -5 -28 -12 -65 -16 -82 -4 -21 -3 -31 5 -31 7 0 25 -9 40 -20 25 -18 27 -25 23 -60 -6 -40 3 -50 24 -29 13 13 45 32 91 53 18 8 34 21 37 28 3 7 6 100 7 206 3 220 5 217 -77 150z"/> <path d="M3510 2465 c0 -11 7 -15 23 -13 12 2 22 8 22 13 0 6 -10 11 -22 13 -16 2 -23 -2 -23 -13z"/> <path d="M3703 2454 c-10 -22 -10 -24 2 -14 16 13 65 5 65 -10 0 -6 6 -10 14 -10 7 0 19 -7 26 -16 8 -9 25 -14 44 -12 46 4 38 23 -11 26 -27 2 -43 8 -43 16 0 19 -19 33 -55 40 -26 5 -32 2 -42 -20z"/> <path d="M3900 2446 c0 -9 7 -16 16 -16 17 0 14 22 -4 28 -7 2 -12 -3 -12 -12z"/> <path d="M3453 2439 c-18 -5 -33 -16 -33 -24 0 -17 4 -18 28 -6 9 5 25 12 35 15 9 3 17 10 17 16 0 12 -3 12 -47 -1z"/> <path d="M4272 2438 c3 -7 15 -15 27 -16 16 -3 22 1 19 10 -3 7 -15 15 -27 16 -16 3 -22 -1 -19 -10z"/> <path d="M5907 2443 c-4 -3 -7 -21 -7 -40 0 -42 30 -73 70 -73 23 0 33 -6 40 -25 5 -14 16 -25 25 -25 18 0 19 -23 3 -50 -19 -30 1 -55 43 -55 l34 0 -3 47 c-2 26 2 64 9 85 11 35 10 38 -17 60 -16 13 -39 23 -50 23 -12 0 -27 7 -34 15 -7 8 -20 15 -29 15 -10 0 -26 7 -37 15 -21 16 -37 19 -47 8z"/> <path d="M3644 2409 c-3 -6 0 -15 7 -20 22 -14 29 -11 29 11 0 21 -24 27 -36 9z"/> <path d="M3354 2375 c-3 -8 -14 -17 -25 -20 -11 -4 -17 -10 -14 -15 3 -5 24 0 45 11 22 12 37 25 34 30 -8 14 -34 11 -40 -6z"/> <path d="M3590 2376 c0 -10 -15 -17 -43 -21 -54 -8 -74 -34 -45 -59 19 -17 19 -16 13 3 -4 14 0 23 15 31 11 6 25 8 30 5 10 -6 59 33 60 48 0 4 -7 7 -15 7 -8 0 -15 -6 -15 -14z"/> <path d="M3710 2346 c0 -8 -7 -16 -15 -20 -8 -3 -15 -10 -15 -16 0 -5 7 -10 15 -10 8 0 15 7 15 15 0 8 7 15 15 15 8 0 15 7 15 15 0 8 -7 15 -15 15 -8 0 -15 -6 -15 -14z"/> <path d="M4070 2346 c0 -12 10 -16 40 -16 22 0 40 5 40 10 0 6 -8 10 -17 10 -10 0 -28 3 -40 6 -17 5 -23 2 -23 -10z"/> <path d="M3870 2315 c-7 -8 -21 -15 -31 -15 -25 0 -34 -19 -13 -27 10 -4 21 0 28 9 6 8 21 18 34 22 12 4 20 12 17 17 -9 13 -21 11 -35 -6z"/> <path d="M3624 2295 c6 -23 4 -25 -27 -25 -39 0 -73 -30 -63 -55 7 -19 26 -11 26 11 0 8 9 14 19 14 29 0 76 43 68 63 -10 27 -30 20 -23 -8z"/> <path d="M3204 2285 c-4 -8 -17 -15 -30 -15 -13 0 -24 -4 -24 -10 0 -14 22 -12 59 6 17 8 29 20 26 25 -9 14 -25 11 -31 -6z"/> <path d="M3422 2284 c-5 -9 -27 -20 -48 -23 -30 -5 -40 -11 -42 -29 -2 -12 1 -22 7 -22 6 0 11 6 11 14 0 8 15 16 34 19 40 6 88 35 80 48 -9 14 -32 10 -42 -7z"/> <path d="M5233 2281 c-34 -29 -29 -65 12 -97 34 -26 36 -26 49 -9 15 21 46 14 46 -9 0 -9 -8 -23 -19 -33 -29 -28 -45 -163 -22 -186 9 -9 109 -14 115 -6 1 2 12 17 24 33 27 35 28 56 4 56 -28 0 -42 43 -42 131 0 77 -10 115 -34 131 -23 16 -110 8 -133 -11z"/> <path d="M9443 2273 c-4 -10 -17 -32 -30 -49 -13 -18 -38 -60 -55 -95 -30 -61 -31 -70 -35 -209 -2 -100 0 -140 7 -130 5 8 10 30 10 48 0 18 7 44 16 57 9 14 19 54 22 90 2 37 11 70 18 76 8 6 14 18 14 25 0 8 4 14 10 14 5 0 12 11 16 25 3 14 9 25 13 25 12 0 41 76 41 108 0 25 -4 32 -20 32 -11 0 -24 -8 -27 -17z"/> <path d="M3741 2246 c-20 -21 -20 -24 -6 -30 16 -6 64 29 65 47 0 16 -38 6 -59 -17z"/> <path d="M11274 2245 c-71 -32 -145 -134 -159 -221 -5 -34 -15 -47 -54 -77 -27 -21 -55 -37 -64 -37 -9 0 -19 -5 -22 -11 -4 -5 -17 -15 -28 -20 -12 -5 -38 -19 -57 -30 -19 -12 -55 -32 -80 -46 -25 -13 -58 -33 -75 -44 -16 -10 -39 -23 -50 -29 -11 -6 -33 -19 -50 -30 -16 -11 -39 -24 -50 -30 -29 -14 -65 -47 -65 -59 0 -6 -4 -11 -9 -11 -11 0 -21 25 -21 50 0 10 -12 32 -26 49 -34 41 -74 41 -135 -1 -60 -41 -105 -108 -125 -188 -8 -36 -21 -69 -27 -75 -7 -5 -20 -22 -30 -37 -10 -16 -22 -28 -28 -28 -6 0 -26 -7 -45 -16 -49 -24 -179 -7 -256 32 -14 8 -33 14 -41 14 -14 0 -80 33 -147 73 -58 35 -141 101 -209 166 -35 33 -67 61 -71 61 -4 0 -11 16 -14 35 -8 41 -26 37 -26 -6 0 -22 -5 -29 -20 -29 -25 0 -73 -21 -83 -37 -12 -19 -29 -16 -23 5 4 12 -11 35 -47 73 -55 58 -94 78 -103 54 -11 -28 2 -48 36 -60 35 -12 35 -12 38 -79 2 -41 -2 -73 -9 -82 -9 -11 -8 -15 5 -19 9 -3 23 -7 31 -10 8 -2 15 -14 15 -25 0 -26 17 -26 25 0 4 11 15 20 26 20 20 0 20 1 2 30 l-18 31 30 24 c17 13 35 24 40 25 6 0 19 9 28 21 26 29 61 22 65 -15 3 -20 -3 -32 -17 -43 -29 -20 -27 -27 17 -55 20 -14 51 -37 67 -52 17 -15 48 -39 70 -54 22 -15 42 -29 45 -32 37 -37 310 -170 349 -170 11 0 22 -4 26 -9 3 -5 20 -12 38 -16 17 -4 52 -14 77 -22 l45 -16 55 36 c30 20 66 46 80 58 l25 22 -31 -7 c-37 -8 -59 12 -49 44 7 23 30 25 65 5 30 -17 83 -19 113 -4 43 22 117 83 117 96 0 7 4 13 9 13 5 0 13 10 16 23 17 56 48 107 65 107 44 0 51 -10 27 -43 -12 -16 -37 -45 -55 -64 -18 -18 -30 -33 -28 -33 4 0 60 29 206 106 19 11 37 22 40 25 3 3 34 22 70 41 36 19 95 54 133 77 37 22 71 41 76 41 4 0 18 9 31 20 13 11 28 20 34 20 12 1 56 35 56 44 0 4 -11 11 -25 16 -18 7 -25 17 -25 36 0 21 4 25 18 19 9 -3 29 -9 45 -12 15 -3 27 -10 27 -15 0 -15 60 1 108 29 51 29 102 77 102 96 0 8 7 20 15 27 8 7 15 22 15 33 0 11 5 37 11 58 8 27 9 42 2 51 -6 7 -14 28 -18 46 -4 21 -16 37 -35 47 -34 18 -45 18 -86 0z m70 -97 c30 -86 -98 -249 -160 -203 -14 10 -16 21 -10 66 8 61 33 106 78 144 40 34 79 31 92 -7z m-933 -498 c15 -8 19 -22 19 -60 0 -74 -38 -135 -107 -175 -31 -18 -33 -18 -53 0 -50 45 7 185 95 233 25 14 23 14 46 2z"/> <path d="M3095 2230 c-26 -10 -50 -38 -41 -48 4 -4 13 1 20 11 7 9 25 17 40 17 17 0 26 5 24 12 -6 16 -19 18 -43 8z"/> <path d="M3917 2234 c-13 -13 -7 -24 14 -24 11 0 19 5 17 12 -5 14 -22 21 -31 12z"/> <path d="M3462 2210 c13 -21 38 -27 38 -10 0 6 -7 10 -15 10 -8 0 -15 5 -15 10 0 6 -5 10 -10 10 -6 0 -5 -8 2 -20z"/> <path d="M3660 2224 c0 -16 24 -64 33 -64 4 0 7 6 7 13 0 15 -39 66 -40 51z"/> <path d="M3264 2195 c-4 -8 -12 -15 -19 -15 -21 0 -28 -19 -11 -26 9 -3 28 5 46 19 23 20 26 26 14 31 -22 8 -24 8 -30 -9z"/> <path d="M3800 2180 c20 -20 50 -27 50 -12 0 7 -47 32 -62 32 -4 0 1 -9 12 -20z"/> <path d="M8730 2190 c0 -5 -24 -21 -52 -35 -86 -42 -153 -79 -157 -88 -2 -5 -15 -13 -29 -18 -19 -7 -22 -13 -14 -21 9 -9 16 -7 30 5 10 9 25 17 32 17 7 0 21 6 29 14 9 8 39 26 67 40 29 14 62 37 75 51 13 13 34 25 47 25 12 0 22 5 22 10 0 6 -11 10 -25 10 -14 0 -25 -4 -25 -10z"/> <path d="M3408 2173 c-10 -2 -18 -11 -18 -18 0 -7 -6 -15 -12 -18 -10 -3 -8 -10 5 -23 18 -19 19 -18 15 6 -3 22 2 26 31 30 39 6 56 31 19 29 -12 -1 -31 -3 -40 -6z"/> <path d="M3585 2156 c-36 -32 -15 -44 25 -15 35 26 34 25 16 32 -8 3 -26 -5 -41 -17z"/> <path d="M1933 2152 c-10 -10 -34 -25 -53 -32 -48 -18 -58 -29 -40 -40 27 -17 61 -12 67 10 3 12 23 30 44 41 22 11 39 24 39 29 0 17 -38 11 -57 -8z"/> <path d="M3174 2145 c-7 -29 -1 -41 15 -30 14 8 14 55 1 55 -5 0 -12 -11 -16 -25z"/> <path d="M6098 2123 c-16 -34 -52 -41 -78 -18 -21 19 -50 14 -50 -9 0 -9 10 -21 23 -27 12 -7 25 -17 29 -23 11 -16 10 -64 -2 -87 -9 -16 -7 -21 12 -28 17 -7 31 -31 52 -85 16 -42 32 -76 37 -76 12 0 11 67 -1 75 -5 3 -10 32 -10 64 0 45 5 65 22 87 25 31 33 90 18 129 -12 33 -36 32 -52 -2z"/> <path d="M2910 2130 c0 -5 9 -10 19 -10 11 0 26 -3 35 -6 11 -4 16 -1 16 10 0 12 -10 16 -35 16 -19 0 -35 -4 -35 -10z"/> <path d="M3306 2116 c9 -15 21 -22 30 -19 21 8 17 23 -6 23 -11 0 -20 5 -20 10 0 6 -5 10 -10 10 -6 0 -3 -11 6 -24z"/> <path d="M3722 2128 c-31 -31 -6 -36 40 -8 l33 20 -30 0 c-17 0 -36 -5 -43 -12z"/> <path d="M3113 2107 c-4 -8 -16 -17 -26 -20 -10 -4 -15 -11 -12 -17 9 -15 35 -12 35 4 0 8 11 17 25 20 14 4 23 11 20 16 -9 14 -33 12 -42 -3z"/> <path d="M3510 2106 c0 -9 7 -16 16 -16 17 0 14 22 -4 28 -7 2 -12 -3 -12 -12z"/> <path d="M5880 2103 c0 -10 -3 -35 -6 -55 -6 -35 -5 -38 16 -38 16 0 21 4 16 16 -4 10 1 25 11 36 13 15 15 23 7 36 -16 24 -44 28 -44 5z"/> <path d="M3640 2095 c20 -24 4 -45 -34 -45 -30 0 -55 -14 -45 -25 5 -4 91 18 107 28 19 13 14 31 -14 44 -22 10 -24 10 -14 -2z"/> <path d="M4533 2090 c-15 -6 -23 -18 -23 -33 0 -13 -5 -28 -12 -35 -9 -9 -9 -15 0 -24 9 -9 17 -7 35 10 27 26 45 28 53 7 4 -8 15 -15 25 -15 20 0 26 15 9 25 -5 3 -10 17 -10 31 0 17 -8 27 -26 34 -14 6 -26 10 -27 9 -1 0 -12 -4 -24 -9z"/> <path d="M2843 2083 c-7 -2 -13 -9 -13 -15 0 -12 41 -6 41 7 1 12 -11 15 -28 8z"/> <path d="M3261 2083 c-27 -5 -51 -25 -51 -42 0 -16 17 -13 23 3 3 8 20 16 38 18 18 2 34 9 37 16 4 12 -3 13 -47 5z"/> <path d="M1760 2070 l-35 -6 37 -8 c37 -8 58 -3 58 15 0 10 -7 10 -60 -1z"/> <path d="M3422 2068 c-16 -16 -15 -28 3 -28 8 0 15 4 15 9 0 4 15 13 33 19 l32 10 -35 1 c-20 1 -41 -4 -48 -11z"/> <path d="M10230 2063 c-1 -10 -9 -36 -20 -58 -28 -58 -26 -69 10 -61 34 6 52 -16 31 -37 -33 -33 3 -36 44 -3 28 22 29 25 16 50 -8 14 -20 26 -28 26 -16 0 -33 40 -33 76 0 27 -20 34 -20 7z"/> <path d="M2790 2055 c0 -9 5 -15 11 -13 6 2 11 8 11 13 0 5 -5 11 -11 13 -6 2 -11 -4 -11 -13z"/> <path d="M3020 2046 c0 -14 5 -26 10 -26 6 0 10 7 10 15 0 8 0 18 1 22 0 4 -4 9 -10 11 -6 2 -11 -8 -11 -22z"/> <path d="M11411 2019 c-18 -40 -9 -46 41 -28 51 19 57 32 23 47 -39 18 -49 15 -64 -19z"/> <path d="M4330 2030 c0 -5 9 -10 21 -10 11 0 17 5 14 10 -3 6 -13 10 -21 10 -8 0 -14 -4 -14 -10z"/> <path d="M2715 2006 c-16 -14 -26 -29 -21 -33 4 -4 13 -1 20 8 6 9 20 18 31 20 10 2 18 8 18 14 -2 19 -20 15 -48 -9z"/> <path d="M2935 2005 c-24 -20 -26 -25 -13 -30 10 -4 25 2 37 14 12 12 26 21 32 21 5 0 7 5 4 10 -10 16 -30 12 -60 -15z"/> <path d="M3150 2016 c0 -18 6 -19 35 -6 11 5 15 9 8 9 -6 1 -18 4 -27 7 -11 4 -16 1 -16 -10z"/> <path d="M3350 2016 c0 -16 -21 -26 -55 -26 -28 0 -52 -34 -33 -46 7 -4 18 2 26 14 9 14 25 22 41 22 29 0 51 16 51 37 0 7 -7 13 -15 13 -8 0 -15 -6 -15 -14z"/> <path d="M8416 2005 c-3 -8 -13 -15 -21 -15 -9 0 -23 -7 -31 -15 -9 -8 -24 -15 -35 -15 -10 0 -19 -7 -19 -15 0 -21 36 -19 52 4 7 10 30 24 51 32 50 18 69 39 34 39 -14 0 -27 -7 -31 -15z"/> <path d="M8885 2008 c-72 -18 -69 -16 -51 -37 15 -16 23 -17 56 -9 47 12 70 -1 70 -38 0 -29 14 -38 30 -19 7 8 16 15 21 15 15 0 10 -30 -5 -36 -16 -6 -27 -40 -19 -60 3 -8 16 -14 29 -14 19 0 26 8 36 41 11 37 10 45 -12 88 -41 79 -66 91 -155 69z"/> <path d="M3093 1993 c-23 -3 -33 -10 -37 -29 -5 -17 -13 -24 -31 -24 -13 0 -28 -7 -32 -15 -5 -8 -26 -18 -48 -23 -30 -6 -41 -13 -43 -30 -2 -16 -10 -22 -27 -22 -13 0 -35 -11 -50 -24 -22 -20 -23 -25 -10 -36 13 -10 15 -9 15 8 0 15 9 21 35 26 22 4 43 18 56 35 15 21 27 27 45 23 17 -3 24 0 24 12 0 11 13 18 40 22 30 5 41 12 48 32 6 19 16 26 33 27 13 0 25 4 27 10 4 11 -3 13 -45 8z"/> <path d="M3493 1988 c2 -7 10 -13 17 -13 7 0 15 6 18 13 2 7 -5 12 -18 12 -13 0 -20 -5 -17 -12z"/> <path d="M2855 1967 c5 -19 3 -27 -6 -28 -43 -2 -57 -7 -77 -27 -14 -14 -17 -24 -10 -28 6 -4 15 1 20 10 5 9 27 19 49 22 50 8 67 34 38 60 -20 18 -20 18 -14 -9z"/> <path d="M4428 1963 c-22 -24 -23 -43 -3 -43 18 0 28 21 23 46 -3 14 -5 14 -20 -3z"/> <path d="M4640 1965 c0 -8 5 -15 10 -15 6 0 10 7 10 15 0 8 -4 15 -10 15 -5 0 -10 -7 -10 -15z"/> <path d="M5189 1949 c-21 -21 -23 -60 -2 -66 11 -4 43 55 43 78 0 15 -19 10 -41 -12z"/> <path d="M5935 1959 c-4 -5 -6 -60 -5 -122 1 -62 -3 -157 -9 -212 -5 -55 -11 -174 -11 -265 0 -182 -4 -210 -30 -210 -17 0 -80 -28 -90 -39 -3 -4 -35 -21 -72 -38 -36 -18 -69 -37 -72 -42 -4 -5 31 -29 76 -51 108 -55 127 -65 141 -79 15 -15 57 -14 76 2 23 20 170 107 180 107 5 0 14 7 21 15 11 13 7 15 -24 15 -51 0 -98 -22 -120 -55 l-19 -29 -11 35 c-6 19 -18 34 -26 34 -9 0 -41 13 -72 29 l-57 29 36 24 c39 27 63 24 63 -7 0 -21 15 -27 25 -9 4 6 13 8 21 5 10 -4 14 2 14 18 0 13 9 35 20 49 18 23 20 40 20 212 0 162 -2 186 -15 181 -12 -4 -15 3 -15 33 0 41 23 71 56 71 16 0 19 -6 16 -43 -3 -30 1 -47 12 -56 12 -10 16 -32 16 -85 0 -39 5 -89 11 -111 5 -22 14 -67 19 -100 5 -33 13 -73 16 -89 7 -28 6 -29 -22 -22 -16 4 -44 10 -62 13 -31 5 -33 3 -30 -18 2 -14 17 -30 44 -44 22 -12 52 -29 65 -38 29 -21 68 -21 94 -1 20 16 20 16 -1 30 -21 14 -21 21 -16 142 4 106 2 133 -12 159 -13 26 -16 63 -16 186 0 184 -4 192 -67 141 -42 -34 -46 -36 -91 -27 -46 8 -47 9 -46 43 1 19 6 68 12 109 9 62 8 78 -5 97 -17 26 -28 30 -38 13z m-63 -976 c21 -9 38 -23 38 -31 0 -21 -51 -9 -98 23 l-37 25 29 0 c16 0 47 -8 68 -17z"/> <path d="M3400 1945 c-7 -9 -11 -18 -8 -20 6 -6 78 23 78 30 0 12 -59 3 -70 -10z"/> <path d="M4710 1941 c0 -19 43 -55 54 -44 11 11 6 19 -24 41 -29 21 -30 22 -30 3z"/> <path d="M3182 1920 c-7 -11 -23 -20 -36 -20 -14 0 -32 -8 -42 -17 -17 -17 -17 -18 1 -22 10 -1 22 4 27 13 5 10 22 16 42 16 35 0 62 21 51 40 -10 16 -29 12 -43 -10z"/> <path d="M9414 1918 c3 -13 6 -39 6 -58 1 -34 1 -35 14 -11 16 28 23 19 32 -39 4 -26 19 -56 37 -76 37 -43 52 -44 42 -1 -4 17 -8 46 -9 64 -1 23 -14 46 -53 87 -54 60 -79 71 -69 34z"/> <path d="M2568 1918 c8 -8 17 -8 34 0 22 10 21 11 -11 11 -27 1 -32 -2 -23 -11z"/> <path d="M4332 1918 c-16 -16 -15 -48 2 -48 20 0 39 27 32 45 -7 18 -18 19 -34 3z"/> <path d="M4524 1904 c-4 -14 -2 -30 5 -37 8 -8 11 -1 11 26 0 43 -7 48 -16 11z"/> <path d="M4207 1902 c-10 -10 -17 -25 -17 -34 0 -21 31 -47 61 -50 22 -3 24 0 21 37 -3 35 -22 65 -42 65 -4 0 -14 -8 -23 -18z"/> <path d="M3330 1894 c0 -10 7 -14 22 -12 32 5 35 28 4 28 -17 0 -26 -5 -26 -16z"/> <path d="M4620 1901 c0 -21 13 -41 26 -41 19 0 18 36 -2 44 -21 8 -24 8 -24 -3z"/> <path d="M8840 1888 c0 -13 -11 -56 -25 -97 -14 -41 -23 -82 -20 -92 15 -46 -79 -18 -200 60 -22 14 -60 36 -85 50 -25 13 -64 37 -88 53 -23 16 -50 30 -60 30 -23 1 -72 -19 -72 -30 0 -14 35 -42 52 -42 9 0 21 -7 28 -15 7 -8 16 -15 21 -15 5 0 41 -19 81 -43 40 -24 80 -46 88 -50 8 -4 29 -16 45 -27 17 -11 37 -23 45 -27 63 -28 220 -157 220 -181 0 -23 30 -35 56 -23 20 9 25 17 22 39 -2 22 -14 33 -63 58 -41 20 -60 37 -61 50 -1 10 -2 30 -4 44 -7 67 31 123 90 131 36 6 32 33 -5 37 -36 5 -45 16 -45 64 0 20 -4 40 -10 43 -6 3 -10 -4 -10 -17z"/> <path d="M2693 1873 c2 -25 -2 -28 -27 -28 -16 -1 -32 -7 -34 -14 -6 -18 55 -4 85 19 22 17 22 18 4 34 -25 22 -30 20 -28 -11z"/> <path d="M5053 1868 c-46 -23 -51 -34 -30 -61 11 -17 15 -16 54 3 40 19 61 49 48 70 -9 15 -25 12 -72 -12z"/> <path d="M4830 1872 c0 -5 8 -17 19 -26 16 -15 19 -15 24 -2 4 10 -1 20 -13 26 -23 12 -30 13 -30 2z"/> <path d="M3236 1854 c-8 -22 -8 -24 8 -24 12 0 26 20 26 36 0 12 -29 2 -34 -12z"/> <path d="M3288 1858 c9 -9 15 -9 24 0 9 9 7 12 -12 12 -19 0 -21 -3 -12 -12z"/> <path d="M4430 1846 c0 -14 4 -27 9 -30 18 -11 41 6 41 30 0 19 -5 24 -25 24 -20 0 -25 -5 -25 -24z"/> <path d="M4710 1853 c0 -25 35 -59 45 -43 4 6 -5 23 -19 37 -24 24 -26 24 -26 6z"/> <path d="M3016 1826 c-15 -13 -24 -26 -19 -29 13 -8 74 24 70 36 -6 19 -21 17 -51 -7z"/> <path d="M4372 1828 c6 -18 28 -21 28 -4 0 9 -7 16 -16 16 -9 0 -14 -5 -12 -12z"/> <path d="M3162 1796 c-12 -14 -19 -27 -14 -30 11 -7 73 34 66 45 -9 15 -28 10 -52 -15z"/> <path d="M4533 1813 c-13 -4 -19 -63 -7 -63 20 0 44 24 44 45 0 24 -11 29 -37 18z"/> <path d="M4623 1804 c-8 -21 23 -52 37 -38 6 6 8 18 5 27 -9 22 -35 29 -42 11z"/> <path d="M5250 1789 c0 -27 2 -30 15 -19 8 7 15 21 15 31 0 11 -7 19 -15 19 -10 0 -15 -10 -15 -31z"/> <path d="M9558 1814 c-4 -3 2 -24 13 -47 10 -23 19 -51 19 -62 0 -11 11 -33 24 -50 21 -26 25 -28 31 -13 4 10 2 32 -4 49 -6 18 -11 42 -11 55 0 13 -12 35 -27 49 -29 26 -36 29 -45 19z"/> <path d="M2940 1790 c0 -11 4 -20 9 -20 11 0 22 26 14 34 -12 12 -23 5 -23 -14z"/> <path d="M4276 1781 c-3 -5 1 -14 9 -21 13 -10 15 -9 15 9 0 21 -14 28 -24 12z"/> <path d="M3087 1773 c-3 -5 -2 -15 2 -22 7 -10 10 -10 16 -1 4 6 3 16 -3 22 -5 5 -12 6 -15 1z"/> <path d="M4891 1770 c-18 -4 -36 -12 -40 -18 -3 -5 -25 -19 -48 -31 -49 -24 -53 -37 -19 -52 25 -12 27 -11 111 35 17 9 38 16 48 16 21 0 22 23 1 44 -8 9 -16 16 -17 15 -1 -1 -17 -5 -36 -9z"/> <path d="M2863 1735 c-16 -19 -18 -25 -7 -25 21 0 65 31 58 41 -9 16 -28 9 -51 -16z"/> <path d="M5220 1734 c0 -14 4 -23 10 -19 6 3 10 15 10 26 0 10 -4 19 -10 19 -5 0 -10 -12 -10 -26z"/> <path d="M9650 1741 c0 -11 5 -21 11 -23 6 -2 14 -27 17 -56 3 -39 10 -55 24 -63 26 -14 31 -7 18 25 -5 15 -10 44 -10 66 0 29 -6 41 -25 54 -31 20 -35 20 -35 -3z"/> <path d="M4722 1739 c2 -7 10 -15 17 -17 8 -3 12 1 9 9 -2 7 -10 15 -17 17 -8 3 -12 -1 -9 -9z"/> <path d="M3015 1719 c-10 -15 1 -22 24 -14 12 3 19 11 16 16 -8 12 -32 11 -40 -2z"/> <path d="M4370 1715 c0 -10 7 -15 18 -13 21 4 19 22 -2 26 -10 2 -16 -3 -16 -13z"/> <path d="M4581 1721 c-11 -7 -8 -12 10 -24 35 -22 72 -32 68 -18 -7 21 -63 51 -78 42z"/> <path d="M5385 1690 c-30 -24 -48 -30 -84 -30 -26 0 -52 5 -58 11 -7 7 -18 9 -26 6 -21 -8 -30 -213 -16 -391 9 -130 9 -150 -5 -172 -9 -13 -24 -24 -34 -25 -9 0 -30 -9 -47 -19 -59 -36 -167 -90 -180 -90 -8 0 -17 -5 -20 -11 -8 -12 22 -49 40 -49 14 0 122 -56 145 -75 8 -6 23 -15 33 -18 9 -4 17 -11 17 -17 0 -5 7 -10 15 -10 8 0 15 4 15 9 0 9 165 111 180 111 5 0 15 6 22 13 19 19 78 47 99 47 32 0 30 18 -6 40 -30 19 -35 27 -31 49 12 62 16 179 8 221 -4 25 -5 106 -1 180 8 142 1 241 -17 247 -6 2 -28 -10 -49 -27z m-23 -120 c-2 -19 -9 -41 -15 -48 -7 -9 -7 -16 1 -24 7 -7 12 -42 12 -79 0 -37 6 -100 14 -140 8 -41 17 -105 21 -142 l6 -69 -54 7 c-39 5 -57 3 -62 -6 -9 -14 37 -56 73 -65 35 -9 26 -32 -17 -44 -22 -6 -49 -22 -61 -37 -20 -25 -21 -26 -35 -7 -8 10 -13 28 -10 39 3 11 8 40 11 65 4 31 14 52 32 67 21 18 23 24 13 36 -16 20 -27 182 -13 199 5 7 13 34 17 61 4 26 11 50 16 53 10 6 13 54 3 54 -3 0 -12 -7 -20 -15 -35 -35 -43 -8 -19 60 18 49 18 45 0 45 -8 0 -15 5 -15 11 0 6 6 9 13 6 6 -2 21 -1 32 4 11 4 29 7 40 6 17 -2 19 -8 17 -37z m-148 -568 l7 -52 -68 2 c-64 3 -68 2 -71 -19 -3 -17 2 -23 16 -23 23 0 82 -31 82 -42 0 -24 -87 18 -119 56 -11 13 -11 20 3 41 9 14 29 32 44 42 15 9 40 28 56 41 16 13 32 19 36 15 4 -4 10 -32 14 -61z"/> <path d="M4955 1699 c-4 -6 -5 -13 -2 -16 7 -7 27 6 27 18 0 12 -17 12 -25 -2z"/> <path d="M9743 1694 c-3 -9 1 -37 11 -63 9 -25 16 -54 16 -63 0 -10 7 -18 15 -18 23 0 21 113 -2 140 -21 24 -32 25 -40 4z"/> <path d="M9827 1673 c-9 -15 8 -126 19 -130 15 -5 25 108 12 125 -12 14 -25 16 -31 5z"/> <path d="M4290 1655 c0 -8 5 -15 10 -15 6 0 10 7 10 15 0 8 -4 15 -10 15 -5 0 -10 -7 -10 -15z"/> <path d="M4510 1644 c0 -8 -13 -20 -30 -25 -36 -13 -42 -54 -10 -64 11 -3 20 -13 20 -22 0 -10 6 -13 16 -9 9 3 17 6 19 6 3 0 9 10 16 21 10 20 9 21 -15 15 -27 -7 -27 -6 -10 19 18 28 51 33 60 10 4 -9 19 -15 35 -15 39 0 39 29 0 36 -17 4 -38 15 -47 25 -21 23 -54 25 -54 3z"/> <path d="M9898 1642 c-2 -8 -2 -36 0 -61 3 -40 8 -49 35 -65 31 -17 32 -17 48 2 18 23 34 112 22 123 -5 3 -29 9 -55 11 -37 4 -48 2 -50 -10z"/> <path d="M4712 1641 c4 -13 18 -16 19 -4 0 4 -5 9 -11 12 -7 2 -11 -2 -8 -8z"/> <path d="M8080 1597 c-39 -31 -52 -68 -50 -141 4 -109 3 -115 -25 -122 -29 -7 -30 -15 -10 -53 14 -29 41 -47 60 -41 6 2 28 3 50 4 l40 1 0 83 c0 69 -3 85 -17 93 -26 14 -24 69 1 69 10 0 21 -7 25 -15 9 -23 23 -18 52 20 18 24 24 42 20 57 -11 45 -109 75 -146 45z"/> <path d="M4660 1576 c-9 -12 -7 -17 9 -28 20 -12 30 -58 12 -58 -11 0 -19 -30 -14 -47 5 -13 55 -18 66 -6 4 3 2 12 -5 20 -6 7 -9 14 -7 16 2 1 13 7 24 13 11 6 21 23 23 37 3 21 -2 28 -22 33 -14 3 -30 12 -37 20 -15 18 -33 18 -49 0z"/> <path d="M4366 1551 c-17 -19 -17 -20 13 -35 16 -9 35 -16 41 -16 17 0 12 57 -6 64 -24 9 -29 8 -48 -13z"/> <path d="M9265 1559 c-4 -6 -5 -13 -2 -16 7 -7 27 6 27 18 0 12 -17 12 -25 -2z"/> <path d="M4572 1522 c-26 -20 -20 -32 15 -32 14 0 23 -6 23 -15 0 -8 7 -15 15 -15 20 0 19 26 -1 34 -10 4 -13 13 -9 26 8 25 -11 26 -43 2z"/> <path d="M4461 1511 c-10 -6 -10 -10 -1 -16 13 -8 24 -1 19 14 -3 6 -10 7 -18 2z"/> <path d="M10100 1500 c-13 -11 -29 -20 -37 -20 -15 0 -18 -16 -4 -25 14 -8 91 35 91 51 0 20 -23 17 -50 -6z"/> <path d="M4260 1489 c-14 -11 -34 -24 -45 -30 -11 -5 -40 -21 -64 -34 -24 -14 -50 -25 -58 -25 -7 0 -13 -6 -13 -14 0 -12 149 -96 170 -96 9 0 100 -58 135 -85 10 -8 25 -15 32 -15 7 0 13 -4 13 -9 0 -5 12 -14 28 -20 15 -6 50 -25 77 -41 28 -17 57 -33 65 -36 8 -3 22 -10 30 -15 52 -32 60 -33 90 -11 16 12 35 22 42 23 7 0 27 9 43 19 17 10 53 31 80 45 28 14 64 34 80 45 17 11 40 24 52 29 11 5 24 15 28 20 3 6 26 20 51 31 24 11 44 22 44 24 0 2 -7 20 -15 40 -19 45 -41 46 -86 3 -19 -18 -41 -36 -49 -40 -8 -4 -28 -16 -45 -27 -26 -17 -95 -54 -156 -85 -11 -5 -23 -22 -26 -37 l-5 -27 -32 33 c-19 19 -51 38 -79 45 -26 8 -52 20 -58 27 -6 8 -18 14 -26 14 -7 0 -16 7 -19 15 -4 8 -14 15 -24 15 -11 0 -21 4 -24 9 -4 5 -25 19 -49 30 -23 11 -61 39 -84 61 -23 22 -49 40 -58 40 -28 0 -6 19 31 26 43 8 42 30 -1 55 -39 23 -45 23 -75 -2z m16 -101 c-3 -13 -6 -35 -6 -50 0 -36 -15 -36 -28 0 -11 33 1 72 24 72 12 0 15 -6 10 -22z m152 -104 c-4 -20 -34 -41 -44 -31 -8 8 24 47 38 47 5 0 8 -7 6 -16z m180 -129 c-10 -22 -13 -24 -26 -11 -17 17 -8 36 18 36 17 0 18 -3 8 -25z"/> <path d="M4490 1465 c0 -29 12 -32 31 -9 10 13 10 17 -2 25 -23 14 -29 11 -29 -16z"/> <path d="M4850 1472 c0 -4 5 -13 12 -20 9 -9 9 -12 0 -12 -7 0 -12 -11 -12 -25 0 -28 7 -30 33 -11 18 14 23 46 7 46 -5 0 -10 7 -10 15 0 8 -7 15 -15 15 -8 0 -15 -4 -15 -8z"/> <path d="M4797 1464 c-15 -15 -7 -45 11 -42 9 2 17 12 17 22 0 20 -16 31 -28 20z"/> <path d="M4557 1453 c-15 -14 -6 -41 18 -57 32 -21 42 -20 55 3 8 16 5 23 -24 40 -37 23 -40 24 -49 14z"/> <path d="M8626 1452 c-2 -4 -2 -36 0 -72 2 -36 4 -70 4 -77 0 -6 10 -15 23 -19 12 -4 37 -18 55 -32 17 -13 33 -23 33 -21 1 2 3 39 5 82 2 66 0 79 -14 84 -10 4 -33 19 -53 35 -39 30 -45 32 -53 20z"/> <path d="M4402 1413 c3 -16 38 -42 84 -62 11 -5 50 -27 85 -48 35 -22 71 -43 79 -47 8 -4 26 -13 40 -21 17 -10 28 -11 35 -4 13 13 -42 60 -107 91 -27 12 -48 26 -48 30 0 5 -6 8 -13 8 -7 0 -36 16 -66 35 -58 38 -95 46 -89 18z"/> <path d="M4972 1402 c-12 -2 -46 -19 -75 -38 -28 -19 -69 -42 -89 -51 -37 -16 -55 -43 -44 -62 9 -14 60 3 110 38 25 16 72 42 105 57 34 16 61 33 61 40 0 13 -34 21 -68 16z"/> <path d="M4778 1381 c-20 -20 -24 -41 -7 -41 11 0 59 46 59 56 0 11 -37 1 -52 -15z"/> <path d="M4665 1374 c-20 -15 -20 -15 0 -30 39 -29 82 -3 50 30 -20 20 -25 20 -50 0z"/> <path d="M8803 1321 c-21 -18 -33 -71 -15 -71 19 1 52 41 52 64 0 31 -7 32 -37 7z"/> <path d="M8216 1238 c10 -51 54 -75 54 -29 0 16 -39 61 -53 61 -4 0 -4 -15 -1 -32z"/> <path d="M8180 1081 c0 -12 5 -21 10 -21 6 0 10 6 10 14 0 8 -4 18 -10 21 -5 3 -10 -3 -10 -14z"/> <path d="M7989 983 c-15 -45 -14 -115 2 -246 11 -88 11 -102 -6 -152 -19 -53 -19 -58 -2 -143 20 -97 16 -122 -18 -122 -13 0 -26 -4 -30 -10 -7 -11 46 -40 75 -40 11 0 20 -6 20 -12 0 -7 14 -20 30 -28 87 -44 125 -66 128 -72 2 -5 12 -8 22 -8 11 0 24 -9 30 -20 15 -28 41 -25 92 9 58 39 158 91 174 91 40 0 3 59 -38 60 -9 0 -20 4 -23 10 -3 5 -30 22 -58 36 -29 14 -73 37 -99 50 l-48 24 0 280 c0 303 -1 311 -52 276 -12 -9 -33 -16 -46 -16 -29 0 -83 28 -100 51 -20 29 -39 22 -53 -18z m144 -84 c31 -17 37 -28 37 -77 0 -35 -3 -42 -17 -40 -14 2 -19 -5 -21 -36 -2 -22 1 -49 6 -60 29 -65 41 -125 33 -152 -5 -16 -12 -55 -16 -86 -6 -51 -9 -58 -28 -58 -12 0 -31 -7 -41 -15 -46 -35 -61 -10 -40 67 7 29 14 73 14 97 0 24 7 96 16 158 14 95 15 121 4 153 -19 56 2 75 53 49z m52 -552 c4 -13 5 -27 4 -33 -7 -39 15 -77 25 -41 2 6 9 31 15 55 7 25 18 42 26 42 8 0 15 -4 15 -10 0 -5 26 -27 58 -47 72 -48 77 -70 24 -112 -40 -31 -80 -44 -82 -26 0 6 10 12 22 13 35 5 80 52 67 69 -15 17 -47 16 -83 -2 -15 -8 -38 -15 -51 -15 -14 0 -25 -7 -28 -20 -5 -20 -6 -20 -43 5 -20 14 -55 30 -78 36 -37 10 -39 12 -18 20 12 5 22 13 22 18 0 5 11 12 25 15 14 4 32 17 41 31 20 31 32 32 39 2z"/> </g> </svg> 